<svg width="25" height="25" viewBox="0 0 25 25" fill="none" xmlns="http://www.w3.org/2000/svg">
<path d="M18.4271 5.44786C18.2016 5.44479 17.9802 5.50868 17.7909 5.63144C17.6016 5.7542 17.453 5.93032 17.3639 6.13754C17.2747 6.34475 17.249 6.57375 17.29 6.79559C17.331 7.01742 17.4368 7.22212 17.5941 7.3838C17.7514 7.54548 17.9531 7.65689 18.1738 7.70393C18.3944 7.75097 18.624 7.73153 18.8336 7.64808C19.0432 7.56462 19.2233 7.4209 19.3512 7.23507C19.4791 7.04925 19.549 6.82967 19.5521 6.60411V6.57286C19.5494 6.27533 19.43 5.99076 19.2196 5.78037C19.0092 5.56998 18.7247 5.45058 18.4271 5.44786Z" stroke="#C1C1C1" stroke-linecap="round" stroke-linejoin="round"/>
<path d="M21.1198 2.86459H3.88025C3.60852 2.87139 3.35021 2.98413 3.16046 3.17874C2.9707 3.37336 2.86454 3.63444 2.86462 3.90626V21.1458C2.86462 21.4221 2.97437 21.6871 3.16972 21.8824C3.36507 22.0778 3.63002 22.1875 3.90629 22.1875H21.1459C21.4221 22.1875 21.6871 22.0778 21.8824 21.8824C22.0778 21.6871 22.1875 21.4221 22.1875 21.1458V3.88022C22.1842 3.74341 22.1539 3.60861 22.0984 3.48352C22.0429 3.35843 21.9633 3.24549 21.8641 3.15118C21.765 3.05686 21.6482 2.983 21.5205 2.93383C21.3928 2.88466 21.2566 2.86113 21.1198 2.86459Z" stroke="#C1C1C1" stroke-linecap="round" stroke-linejoin="round"/>
<path d="M12.5 8.1875C11.6471 8.1875 10.8133 8.44042 10.1041 8.91429C9.39492 9.38815 8.84217 10.0617 8.51577 10.8497C8.18937 11.6377 8.10397 12.5048 8.27037 13.3413C8.43676 14.1779 8.84749 14.9463 9.4506 15.5494C10.0537 16.1525 10.8221 16.5632 11.6587 16.7296C12.4952 16.896 13.3623 16.8106 14.1503 16.4842C14.9383 16.1578 15.6119 15.6051 16.0857 14.8959C16.5596 14.1867 16.8125 13.3529 16.8125 12.5C16.8125 11.3563 16.3582 10.2594 15.5494 9.4506C14.7406 8.64185 13.6437 8.1875 12.5 8.1875Z" stroke="#C1C1C1" stroke-linecap="round" stroke-linejoin="round"/>
</svg>
