<svg width="25" height="25" viewBox="0 0 25 25" fill="none" xmlns="http://www.w3.org/2000/svg">
<path d="M21.2657 4.41663C21.8594 4.41663 22.3073 4.93746 22.0677 5.90621L19.1615 19.6041C18.9584 20.5781 18.3698 20.8125 17.5573 20.3593L10.625 15.2395C10.5982 15.2203 10.5763 15.1948 10.5611 15.1654C10.546 15.136 10.5382 15.1034 10.5382 15.0703C10.5382 15.0372 10.546 15.0046 10.5611 14.9751C10.5763 14.9457 10.5982 14.9203 10.625 14.901L18.6302 7.67183C18.9948 7.34892 18.5521 7.19267 18.073 7.48433L8.02608 13.8229C7.99561 13.8427 7.96101 13.8554 7.92492 13.8599C7.88882 13.8644 7.85217 13.8607 7.81774 13.8489L3.55212 12.5C2.6042 12.2239 2.6042 11.5729 3.76566 11.1093L20.8334 4.526C20.9687 4.46106 21.1157 4.42388 21.2657 4.41663Z" stroke="#C1C1C1" stroke-linecap="round" stroke-linejoin="round"/>
</svg>
