<svg width="25" height="25" viewBox="0 0 25 25" fill="none" xmlns="http://www.w3.org/2000/svg">
<g clip-path="url(#clip0_51_152)">
<path d="M12.5 1.30212C10.5549 1.30421 8.64371 1.8125 6.9545 2.777C5.26528 3.74151 3.85616 5.12903 2.86567 6.80314C1.87518 8.47725 1.33742 10.3803 1.30528 12.3252C1.27313 14.2701 1.74771 16.1899 2.68233 17.8959L1.30212 23.698L7.10421 22.3177C8.60069 23.1387 10.265 23.6066 11.9701 23.6859C13.6751 23.7651 15.3757 23.4535 16.9418 22.7749C18.508 22.0964 19.8983 21.0687 21.0065 19.7705C22.1148 18.4724 22.9116 16.9381 23.336 15.2848C23.7605 13.6316 23.8014 11.9032 23.4557 10.2317C23.1099 8.56022 22.3866 6.9899 21.3411 5.64074C20.2956 4.29158 18.9554 3.19929 17.4231 2.44734C15.8908 1.69538 14.2069 1.30367 12.5 1.30212ZM6.90108 6.39067H9.95317C10.0913 6.39067 10.2238 6.44554 10.3215 6.54321C10.4191 6.64089 10.474 6.77337 10.474 6.9115C10.4569 7.60608 10.5736 8.29747 10.8177 8.94796C10.9229 9.16571 10.946 9.41406 10.8829 9.64748C10.8197 9.88089 10.6746 10.0837 10.474 10.2188L9.40629 11.2605C9.87971 12.185 10.4987 13.0273 11.2396 13.7552C11.9617 14.5082 12.8006 15.1396 13.724 15.625L14.7657 14.5573C15.2865 14.0365 15.5261 14.0365 16.0365 14.2136C16.687 14.4577 17.3784 14.5744 18.073 14.5573C18.209 14.5637 18.3379 14.6206 18.4342 14.7169C18.5305 14.8133 18.5875 14.9421 18.5938 15.0782V18.1302C18.5875 18.2663 18.5305 18.3952 18.4342 18.4915C18.3379 18.5878 18.209 18.6447 18.073 18.6511C15.0092 18.5176 12.1051 17.2475 9.92712 15.0886C7.76482 12.9129 6.49412 10.0074 6.36462 6.94275C6.36586 6.79939 6.42231 6.66202 6.52222 6.5592C6.62212 6.45638 6.75782 6.39602 6.90108 6.39067Z" stroke="#C1C1C1" stroke-linecap="round" stroke-linejoin="round"/>
</g>
<defs>
<clipPath id="clip0_51_152">
<rect width="25" height="25" fill="white"/>
</clipPath>
</defs>
</svg>
