<svg width="156" height="37" viewBox="0 0 156 37" fill="none" xmlns="http://www.w3.org/2000/svg">
<path d="M3.434 5.67959V17.5796H2.329V5.67959H3.434ZM8.024 17.0526V17.5796H3.383V17.0526H8.024ZM7.293 11.4596V11.9696H3.383V11.4596H7.293ZM8.024 5.67959V6.20659H3.383V5.67959H8.024ZM9.061 14.8256L8.075 17.5796H5.253L5.865 17.0526C6.46567 17.0526 6.953 16.9619 7.327 16.7806C7.71233 16.5879 8.024 16.3216 8.262 15.9816C8.5 15.6416 8.70967 15.2563 8.891 14.8256H9.061ZM7.293 11.9356V13.0576H7.123V12.8026C7.123 12.5759 7.04367 12.3833 6.885 12.2246C6.72633 12.0546 6.53367 11.9696 6.307 11.9696V11.9356H7.293ZM7.293 10.3716V11.4936H6.307V11.4596C6.53367 11.4483 6.72633 11.3633 6.885 11.2046C7.04367 11.0346 7.123 10.8363 7.123 10.6096V10.3716H7.293ZM8.024 6.15559V7.51559H7.854V7.20959C7.854 6.93759 7.75767 6.70526 7.565 6.51259C7.37233 6.30859 7.13433 6.20092 6.851 6.18959V6.15559H8.024ZM8.024 5.37359V5.86659L5.95 5.67959C6.19933 5.67959 6.46 5.66259 6.732 5.62859C7.01533 5.59459 7.276 5.55492 7.514 5.50959C7.752 5.46426 7.922 5.41892 8.024 5.37359ZM2.38 16.3386V17.5796H1.02V17.4096C1.02 17.4096 1.054 17.4096 1.122 17.4096C1.20133 17.4096 1.241 17.4096 1.241 17.4096C1.53567 17.4096 1.785 17.3076 1.989 17.1036C2.20433 16.8883 2.31767 16.6333 2.329 16.3386H2.38ZM2.38 6.92059H2.329C2.329 6.62592 2.22133 6.37659 2.006 6.17259C1.79067 5.95726 1.53567 5.84959 1.241 5.84959C1.241 5.84959 1.207 5.84959 1.139 5.84959C1.071 5.84959 1.037 5.84959 1.037 5.84959L1.02 5.67959H2.38V6.92059ZM12.9755 7.37959V17.5796H11.8875V7.37959H12.9755ZM17.5485 17.0526L17.5145 17.5796H12.9415V17.0526H17.5485ZM18.5005 15.1486L17.5655 17.5796H14.9815L15.5595 17.0526C16.1262 17.0526 16.5795 16.9733 16.9195 16.8146C17.2708 16.6446 17.5542 16.4179 17.7695 16.1346C17.9848 15.8399 18.1718 15.5113 18.3305 15.1486H18.5005ZM11.9215 16.4916L12.1425 17.5796H10.6635V17.4096C10.6635 17.4096 10.7032 17.4096 10.7825 17.4096C10.8618 17.4096 10.9015 17.4096 10.9015 17.4096C11.1848 17.4096 11.4172 17.3189 11.5985 17.1376C11.7798 16.9563 11.8762 16.7409 11.8875 16.4916H11.9215ZM12.9245 8.46759V7.37959H14.1825V7.54959C14.1825 7.54959 14.1485 7.54959 14.0805 7.54959C14.0125 7.54959 13.9785 7.54959 13.9785 7.54959C13.7065 7.54959 13.4685 7.64026 13.2645 7.82159C13.0718 7.99159 12.9755 8.20692 12.9755 8.46759H12.9245ZM11.9215 8.46759H11.8875C11.8762 8.20692 11.7742 7.99159 11.5815 7.82159C11.3888 7.64026 11.1508 7.54959 10.8675 7.54959C10.8675 7.54959 10.8335 7.54959 10.7655 7.54959C10.6975 7.54959 10.6635 7.54959 10.6635 7.54959V7.37959H11.9215V8.46759ZM21.6747 7.37959V17.5796H20.5867V7.37959H21.6747ZM26.2477 17.0526L26.2137 17.5796H21.6407V17.0526H26.2477ZM25.4487 12.2246V12.7346H21.6407V12.2246H25.4487ZM26.2307 7.37959V7.90659H21.6407V7.37959H26.2307ZM27.1997 15.1486L26.2647 17.5796H23.6807L24.2587 17.0526C24.8254 17.0526 25.2787 16.9733 25.6187 16.8146C25.9701 16.6446 26.2534 16.4179 26.4687 16.1346C26.6841 15.8399 26.8711 15.5113 27.0297 15.1486H27.1997ZM25.4487 12.7006V13.6696H25.2617V13.4486C25.2617 13.2559 25.2051 13.0916 25.0917 12.9556C24.9784 12.8083 24.8027 12.7346 24.5647 12.7346V12.7006H25.4487ZM25.4487 11.2896V12.2586H24.5647V12.2246C24.8027 12.2246 24.9784 12.1566 25.0917 12.0206C25.2051 11.8733 25.2617 11.7033 25.2617 11.5106V11.2896H25.4487ZM26.2307 7.85559V9.02859H26.0437V8.77359C26.0437 8.53559 25.9644 8.33159 25.8057 8.16159C25.6584 7.99159 25.4544 7.90659 25.1937 7.90659V7.85559H26.2307ZM26.2307 7.10759V7.54959L24.2927 7.37959C24.6441 7.37959 25.0181 7.35126 25.4147 7.29459C25.8114 7.22659 26.0834 7.16426 26.2307 7.10759ZM20.6207 16.4916L20.8417 17.5796H19.3627V17.4096C19.3627 17.4096 19.4024 17.4096 19.4817 17.4096C19.5611 17.4096 19.6007 17.4096 19.6007 17.4096C19.8841 17.4096 20.1164 17.3189 20.2977 17.1376C20.4791 16.9563 20.5754 16.7409 20.5867 16.4916H20.6207ZM20.6207 8.45059H20.5867C20.5754 8.18992 20.4791 7.97459 20.2977 7.80459C20.1164 7.63459 19.8841 7.54959 19.6007 7.54959C19.6007 7.54959 19.5611 7.54959 19.4817 7.54959C19.4024 7.54959 19.3627 7.54959 19.3627 7.54959V7.37959H20.8417L20.6207 8.45059ZM29.544 7.12459L38.962 15.9986L39.132 17.8176L29.714 8.89259L29.544 7.12459ZM29.578 16.5256V17.5796H28.303V17.4096C28.303 17.4096 28.3483 17.4096 28.439 17.4096C28.541 17.4096 28.592 17.4096 28.592 17.4096C28.8527 17.4096 29.0737 17.3246 29.255 17.1546C29.4363 16.9846 29.527 16.7749 29.527 16.5256H29.578ZM30.292 16.5256C30.292 16.7749 30.3827 16.9846 30.564 17.1546C30.7567 17.3246 30.9777 17.4096 31.227 17.4096C31.227 17.4096 31.2723 17.4096 31.363 17.4096C31.465 17.4096 31.516 17.4096 31.516 17.4096V17.5796H30.241V16.5256H30.292ZM29.544 7.12459L30.275 8.07659L30.292 17.5796H29.527V9.24959C29.527 8.67159 29.4987 8.17292 29.442 7.75359C29.3967 7.33426 29.374 7.12459 29.374 7.12459H29.544ZM39.132 7.37959V15.6416C39.132 16.0043 39.1433 16.3556 39.166 16.6956C39.1887 17.0243 39.2113 17.2963 39.234 17.5116C39.268 17.7156 39.285 17.8176 39.285 17.8176H39.132L38.384 16.9166V7.37959H39.132ZM39.081 8.43359V7.37959H40.356V7.54959C40.356 7.54959 40.305 7.54959 40.203 7.54959C40.1123 7.54959 40.067 7.54959 40.067 7.54959C39.8177 7.54959 39.5967 7.63459 39.404 7.80459C39.2227 7.97459 39.132 8.18426 39.132 8.43359H39.081ZM38.384 8.43359C38.3727 8.18426 38.2763 7.97459 38.095 7.80459C37.9137 7.63459 37.6927 7.54959 37.432 7.54959C37.432 7.54959 37.381 7.54959 37.279 7.54959C37.1883 7.54959 37.143 7.54959 37.143 7.54959V7.37959H38.418V8.43359H38.384ZM46.6681 7.14159L51.3431 17.4776H50.0001L46.3791 8.65459L46.6681 7.14159ZM43.3871 16.3386C43.2624 16.6786 43.2794 16.9449 43.4381 17.1376C43.5967 17.3189 43.7781 17.4096 43.9821 17.4096H44.1181V17.5796H40.8711V17.4096C40.8711 17.4096 40.8937 17.4096 40.9391 17.4096C40.9844 17.4096 41.0071 17.4096 41.0071 17.4096C41.2451 17.4096 41.4887 17.3303 41.7381 17.1716C41.9874 17.0016 42.2027 16.7239 42.3841 16.3386H43.3871ZM46.6681 7.14159L46.7871 8.31459L42.8941 17.5286H41.8231L45.8521 8.89259C45.8521 8.89259 45.8804 8.82459 45.9371 8.68859C46.0051 8.55259 46.0787 8.38826 46.1581 8.19559C46.2487 7.99159 46.3281 7.79326 46.3961 7.60059C46.4641 7.40792 46.5037 7.25492 46.5151 7.14159H46.6681ZM48.6741 13.6186V14.1286H44.1691V13.6186H48.6741ZM49.5411 16.3386H50.8331C51.0031 16.7239 51.2127 17.0016 51.4621 17.1716C51.7114 17.3303 51.9494 17.4096 52.1761 17.4096C52.1761 17.4096 52.1987 17.4096 52.2441 17.4096C52.2894 17.4096 52.3121 17.4096 52.3121 17.4096V17.5796H48.8271V17.4096H48.9631C49.1557 17.4096 49.3314 17.3189 49.4901 17.1376C49.6487 16.9449 49.6657 16.6786 49.5411 16.3386ZM59.6915 5.67959H61.9355C62.6608 5.67959 63.2842 5.80992 63.8055 6.07059C64.3268 6.33126 64.7292 6.71092 65.0125 7.20959C65.2958 7.69692 65.4375 8.28059 65.4375 8.96059C65.4375 9.48192 65.3355 9.95226 65.1315 10.3716C64.9275 10.7796 64.6555 11.1253 64.3155 11.4086C63.9755 11.6919 63.5902 11.9073 63.1595 12.0546C62.7288 12.1906 62.2812 12.2416 61.8165 12.2076C61.3632 12.1736 60.9212 12.0433 60.4905 11.8166V11.6466C60.4905 11.6466 60.5868 11.6636 60.7795 11.6976C60.9722 11.7203 61.2158 11.7259 61.5105 11.7146C61.8165 11.6919 62.1338 11.6296 62.4625 11.5276C62.8025 11.4143 63.1142 11.2216 63.3975 10.9496C63.6922 10.6776 63.9132 10.2979 64.0605 9.81059C64.0945 9.68592 64.1228 9.53292 64.1455 9.35159C64.1682 9.15892 64.1738 8.97192 64.1625 8.79059C64.1512 8.00859 63.9472 7.37959 63.5505 6.90359C63.1538 6.42759 62.5928 6.18959 61.8675 6.18959H59.8615C59.8615 6.18959 59.8445 6.14992 59.8105 6.07059C59.7878 5.97992 59.7595 5.89492 59.7255 5.81559C59.7028 5.72492 59.6915 5.67959 59.6915 5.67959ZM59.9125 5.67959V17.5796H58.8075V5.67959H59.9125ZM58.8585 16.3386V17.5796H57.4985V17.4096C57.4985 17.4096 57.5325 17.4096 57.6005 17.4096C57.6798 17.4096 57.7195 17.4096 57.7195 17.4096C58.0142 17.4096 58.2635 17.3076 58.4675 17.1036C58.6828 16.8883 58.7962 16.6333 58.8075 16.3386H58.8585ZM58.8585 6.92059H58.8075C58.8075 6.62592 58.6998 6.37659 58.4845 6.17259C58.2692 5.95726 58.0142 5.84959 57.7195 5.84959C57.7195 5.84959 57.6855 5.84959 57.6175 5.84959C57.5495 5.84959 57.5155 5.84959 57.5155 5.84959L57.4985 5.67959H58.8585V6.92059ZM59.8615 16.3386H59.9125C59.9238 16.6333 60.0315 16.8883 60.2355 17.1036C60.4508 17.3076 60.7058 17.4096 61.0005 17.4096C61.0005 17.4096 61.0345 17.4096 61.1025 17.4096C61.1818 17.4096 61.2215 17.4096 61.2215 17.4096V17.5796H59.8615V16.3386ZM70.4747 7.14159L75.1497 17.4776H73.8067L70.1857 8.65459L70.4747 7.14159ZM67.1937 16.3386C67.069 16.6786 67.086 16.9449 67.2447 17.1376C67.4034 17.3189 67.5847 17.4096 67.7887 17.4096H67.9247V17.5796H64.6777V17.4096C64.6777 17.4096 64.7004 17.4096 64.7457 17.4096C64.791 17.4096 64.8137 17.4096 64.8137 17.4096C65.0517 17.4096 65.2954 17.3303 65.5447 17.1716C65.794 17.0016 66.0094 16.7239 66.1907 16.3386H67.1937ZM70.4747 7.14159L70.5937 8.31459L66.7007 17.5286H65.6297L69.6587 8.89259C69.6587 8.89259 69.687 8.82459 69.7437 8.68859C69.8117 8.55259 69.8854 8.38826 69.9647 8.19559C70.0554 7.99159 70.1347 7.79326 70.2027 7.60059C70.2707 7.40792 70.3104 7.25492 70.3217 7.14159H70.4747ZM72.4807 13.6186V14.1286H67.9757V13.6186H72.4807ZM73.3477 16.3386H74.6397C74.8097 16.7239 75.0194 17.0016 75.2687 17.1716C75.518 17.3303 75.756 17.4096 75.9827 17.4096C75.9827 17.4096 76.0054 17.4096 76.0507 17.4096C76.096 17.4096 76.1187 17.4096 76.1187 17.4096V17.5796H72.6337V17.4096H72.7697C72.9624 17.4096 73.138 17.3189 73.2967 17.1376C73.4554 16.9449 73.4724 16.6786 73.3477 16.3386ZM79.0612 7.37959H80.9482C81.7415 7.37959 82.4272 7.49859 83.0052 7.73659C83.5832 7.96326 84.0308 8.29759 84.3482 8.73959C84.6655 9.17026 84.8242 9.68592 84.8242 10.2866C84.8242 10.9326 84.6768 11.4879 84.3822 11.9526C84.0988 12.4059 83.7192 12.7573 83.2432 13.0066C82.7672 13.2446 82.2402 13.3636 81.6622 13.3636C81.0842 13.3523 80.5062 13.2049 79.9282 12.9216V12.7516C79.9282 12.7516 80.0188 12.7686 80.2002 12.8026C80.3928 12.8366 80.6365 12.8536 80.9312 12.8536C81.2258 12.8423 81.5375 12.7913 81.8662 12.7006C82.1948 12.5986 82.5008 12.4173 82.7842 12.1566C83.0788 11.8959 83.3112 11.5219 83.4812 11.0346C83.5265 10.9099 83.5548 10.7626 83.5662 10.5926C83.5888 10.4226 83.6002 10.2639 83.6002 10.1166C83.6002 9.42526 83.3622 8.88126 82.8862 8.48459C82.4102 8.08792 81.7528 7.88959 80.9142 7.88959H79.2482C79.2482 7.88959 79.2312 7.84992 79.1972 7.77059C79.1745 7.67992 79.1462 7.59492 79.1122 7.51559C79.0782 7.42492 79.0612 7.37959 79.0612 7.37959ZM79.2822 7.37959V17.5796H78.1942V7.37959H79.2822ZM78.2282 16.4916L78.4492 17.5796H76.9702V17.4096C76.9702 17.4096 77.0098 17.4096 77.0892 17.4096C77.1685 17.4096 77.2082 17.4096 77.2082 17.4096C77.4802 17.4096 77.7068 17.3189 77.8882 17.1376C78.0808 16.9563 78.1828 16.7409 78.1942 16.4916H78.2282ZM78.2282 8.45059H78.1942C78.1828 8.18992 78.0808 7.97459 77.8882 7.80459C77.7068 7.63459 77.4802 7.54959 77.2082 7.54959C77.2082 7.54959 77.1685 7.54959 77.0892 7.54959C77.0098 7.54959 76.9702 7.54959 76.9702 7.54959V7.37959H78.4492L78.2282 8.45059ZM79.2312 16.4916H79.2652C79.2765 16.7409 79.3728 16.9563 79.5542 17.1376C79.7468 17.3189 79.9792 17.4096 80.2512 17.4096C80.2625 17.4096 80.3022 17.4096 80.3702 17.4096C80.4495 17.4096 80.4892 17.4096 80.4892 17.4096V17.5796H79.0102L79.2312 16.4916ZM88.8316 7.37959V17.5796H87.7606V7.37959H88.8316ZM87.8116 16.4916V17.5796H86.3666V17.4096C86.3666 17.4096 86.4063 17.4096 86.4856 17.4096C86.565 17.4096 86.6046 17.4096 86.6046 17.4096C86.922 17.4096 87.1883 17.3189 87.4036 17.1376C87.6303 16.9563 87.7493 16.7409 87.7606 16.4916H87.8116ZM88.7806 16.4916H88.8316C88.843 16.7409 88.9563 16.9563 89.1716 17.1376C89.3983 17.3189 89.6703 17.4096 89.9876 17.4096C89.9876 17.4096 90.0216 17.4096 90.0896 17.4096C90.169 17.4096 90.2086 17.4096 90.2086 17.4096L90.2256 17.5796H88.7806V16.4916ZM88.7806 8.46759V7.37959H90.2256L90.2086 7.54959C90.2086 7.54959 90.169 7.54959 90.0896 7.54959C90.0216 7.54959 89.9876 7.54959 89.9876 7.54959C89.6703 7.54959 89.3983 7.64026 89.1716 7.82159C88.9563 7.99159 88.843 8.20692 88.8316 8.46759H88.7806ZM87.8116 8.46759H87.7606C87.7493 8.20692 87.6303 7.99159 87.4036 7.82159C87.1883 7.64026 86.922 7.54959 86.6046 7.54959C86.5933 7.54959 86.548 7.54959 86.4686 7.54959C86.4006 7.54959 86.3666 7.54959 86.3666 7.54959V7.37959H87.8116V8.46759ZM99.9826 7.14159C99.9826 7.14159 99.9826 7.16992 99.9826 7.22659C99.9826 7.27192 99.9826 7.29459 99.9826 7.29459L93.1826 17.5796H91.9926V17.4266L98.3336 7.87259H92.2476V7.36259H98.0616C98.2996 7.36259 98.5546 7.35126 98.8266 7.32859C99.0986 7.30592 99.3422 7.27759 99.5576 7.24359C99.7729 7.20959 99.9146 7.17559 99.9826 7.14159ZM100.136 17.0696L100.017 17.5796H93.0976V17.0696H100.136ZM101.054 15.1486L100.136 17.5796H97.5856L98.1636 17.0696C98.7189 17.0583 99.1609 16.9733 99.4896 16.8146C99.8296 16.6559 100.107 16.4349 100.323 16.1516C100.538 15.8569 100.725 15.5226 100.884 15.1486H101.054ZM92.2476 7.83859H93.2846V7.87259C93.0352 7.88392 92.8312 7.97459 92.6726 8.14459C92.5139 8.30326 92.4346 8.50726 92.4346 8.75659V9.01159H92.2476V7.83859ZM92.2476 7.09059C92.3496 7.12459 92.5082 7.16426 92.7236 7.20959C92.9389 7.24359 93.1712 7.27759 93.4206 7.31159C93.6812 7.33426 93.9249 7.35126 94.1516 7.36259L92.2476 7.53259V7.09059ZM112.059 7.37959V17.5796H110.971V7.37959H112.059ZM104.698 7.37959V17.5796H103.61V7.37959H104.698ZM111.141 12.2926V12.8026H104.511V12.2926H111.141ZM103.661 16.4916V17.5796H102.42V17.4096C102.42 17.4096 102.454 17.4096 102.522 17.4096C102.59 17.4096 102.624 17.4096 102.624 17.4096C102.896 17.4096 103.123 17.3189 103.304 17.1376C103.497 16.9563 103.599 16.7409 103.61 16.4916H103.661ZM104.647 16.4916H104.698C104.698 16.7409 104.795 16.9563 104.987 17.1376C105.18 17.3189 105.412 17.4096 105.684 17.4096C105.684 17.4096 105.718 17.4096 105.786 17.4096C105.854 17.4096 105.888 17.4096 105.888 17.4096V17.5796H104.647V16.4916ZM104.647 8.46759V7.37959H105.888V7.54959C105.888 7.54959 105.854 7.54959 105.786 7.54959C105.718 7.54959 105.684 7.54959 105.684 7.54959C105.412 7.54959 105.18 7.64026 104.987 7.82159C104.795 7.99159 104.698 8.20692 104.698 8.46759H104.647ZM103.661 8.46759H103.61C103.599 8.20692 103.497 7.99159 103.304 7.82159C103.123 7.64026 102.896 7.54959 102.624 7.54959C102.624 7.54959 102.59 7.54959 102.522 7.54959C102.454 7.54959 102.42 7.54959 102.42 7.54959V7.37959H103.661V8.46759ZM111.022 16.4916V17.5796H109.781V17.4096C109.781 17.4096 109.815 17.4096 109.883 17.4096C109.951 17.4096 109.985 17.4096 109.985 17.4096C110.257 17.4096 110.484 17.3189 110.665 17.1376C110.858 16.9563 110.96 16.7409 110.971 16.4916H111.022ZM112.008 16.4916H112.059C112.071 16.7409 112.167 16.9563 112.348 17.1376C112.541 17.3189 112.773 17.4096 113.045 17.4096C113.045 17.4096 113.079 17.4096 113.147 17.4096C113.215 17.4096 113.249 17.4096 113.249 17.4096V17.5796H112.008V16.4916ZM112.008 8.46759V7.37959H113.249V7.54959C113.249 7.54959 113.215 7.54959 113.147 7.54959C113.079 7.54959 113.045 7.54959 113.045 7.54959C112.773 7.54959 112.541 7.64026 112.348 7.82159C112.167 7.99159 112.071 8.20692 112.059 8.46759H112.008ZM111.022 8.46759H110.971C110.96 8.20692 110.858 7.99159 110.665 7.82159C110.484 7.64026 110.257 7.54959 109.985 7.54959C109.985 7.54959 109.951 7.54959 109.883 7.54959C109.815 7.54959 109.781 7.54959 109.781 7.54959V7.37959H111.022V8.46759ZM117.008 7.37959V13.8056C117.008 14.9049 117.286 15.7719 117.841 16.4066C118.408 17.0413 119.178 17.3586 120.153 17.3586C121.23 17.3586 122.074 17.0583 122.686 16.4576C123.309 15.8569 123.621 15.0353 123.621 13.9926V7.37959H124.403V13.9926C124.403 15.1713 124.023 16.1063 123.264 16.7976C122.516 17.4776 121.485 17.8176 120.17 17.8176C118.867 17.8176 117.83 17.4776 117.059 16.7976C116.3 16.1176 115.92 15.1883 115.92 14.0096V7.37959H117.008ZM115.954 7.37959V8.28059H115.92C115.909 8.07659 115.824 7.90659 115.665 7.77059C115.518 7.62326 115.331 7.54959 115.104 7.54959C115.104 7.54959 115.059 7.54959 114.968 7.54959C114.889 7.54959 114.849 7.54959 114.849 7.54959V7.37959H115.954ZM118.079 7.37959V7.54959C118.079 7.54959 118.034 7.54959 117.943 7.54959C117.864 7.54959 117.824 7.54959 117.824 7.54959C117.609 7.54959 117.416 7.62326 117.246 7.77059C117.087 7.90659 117.008 8.07659 117.008 8.28059H116.974V7.37959H118.079ZM123.655 7.37959V8.28059H123.621C123.621 8.07659 123.542 7.90659 123.383 7.77059C123.224 7.62326 123.032 7.54959 122.805 7.54959C122.805 7.54959 122.76 7.54959 122.669 7.54959C122.59 7.54959 122.55 7.54959 122.55 7.54959V7.37959H123.655ZM125.474 7.37959V7.54959C125.474 7.54959 125.429 7.54959 125.338 7.54959C125.259 7.54959 125.219 7.54959 125.219 7.54959C125.004 7.54959 124.817 7.62326 124.658 7.77059C124.499 7.90659 124.414 8.07659 124.403 8.28059H124.369V7.37959H125.474ZM130.849 11.8846L135.286 16.7126C135.479 16.9393 135.683 17.1093 135.898 17.2226C136.114 17.3359 136.403 17.3983 136.765 17.4096V17.5796H136.136C136 17.5796 135.83 17.5739 135.626 17.5626C135.434 17.5399 135.218 17.5003 134.98 17.4436C134.754 17.3756 134.521 17.2793 134.283 17.1546C134.057 17.0186 133.841 16.8373 133.637 16.6106C133.637 16.6106 133.547 16.5143 133.365 16.3216C133.195 16.1176 132.969 15.8626 132.685 15.5566C132.402 15.2393 132.096 14.9106 131.767 14.5706C131.45 14.2193 131.15 13.8906 130.866 13.5846C130.583 13.2673 130.351 13.0123 130.169 12.8196C129.988 12.6156 129.897 12.5136 129.897 12.5136L130.849 11.8846ZM135.388 7.49859L130.696 12.5136H129.897L134.164 7.49859H135.388ZM136.493 7.37959V7.54959H136.425C136.074 7.54959 135.745 7.60626 135.439 7.71959C135.145 7.83292 134.901 8.00292 134.708 8.22959L133.552 8.21259C133.677 8.05392 133.694 7.90659 133.603 7.77059C133.524 7.62326 133.382 7.54959 133.178 7.54959H133.025V7.37959H136.425H136.493ZM129.302 7.37959V17.5796H128.214V7.37959H129.302ZM128.248 16.4916V17.5796H127.007V17.4096C127.007 17.4096 127.041 17.4096 127.109 17.4096C127.177 17.4096 127.211 17.4096 127.211 17.4096C127.483 17.4096 127.716 17.3189 127.908 17.1376C128.101 16.9563 128.203 16.7409 128.214 16.4916H128.248ZM129.251 16.4916H129.302C129.302 16.7409 129.399 16.9563 129.591 17.1376C129.784 17.3189 130.022 17.4096 130.305 17.4096C130.305 17.4096 130.334 17.4096 130.39 17.4096C130.458 17.4096 130.492 17.4096 130.492 17.4096V17.5796H129.251V16.4916ZM129.251 8.46759V7.37959H130.492V7.54959C130.492 7.54959 130.458 7.54959 130.39 7.54959C130.334 7.54959 130.3 7.54959 130.288 7.54959C130.016 7.54959 129.784 7.64026 129.591 7.82159C129.399 7.99159 129.302 8.20692 129.302 8.46759H129.251ZM128.248 8.46759H128.214C128.203 8.20692 128.101 7.99159 127.908 7.82159C127.716 7.64026 127.483 7.54959 127.211 7.54959C127.211 7.54959 127.177 7.54959 127.109 7.54959C127.041 7.54959 127.007 7.54959 127.007 7.54959V7.37959H128.248V8.46759Z" fill="#C1C1C1"/>
<path d="M32.51 34.5796H31.86V29.4096H32.51V34.5796ZM32.66 27.8496C32.66 28.0029 32.6133 28.1263 32.52 28.2196C32.4267 28.3063 32.3133 28.3496 32.18 28.3496C32.0467 28.3496 31.9333 28.3063 31.84 28.2196C31.7467 28.1263 31.7 28.0029 31.7 27.8496C31.7 27.6963 31.7467 27.5763 31.84 27.4896C31.9333 27.3963 32.0467 27.3496 32.18 27.3496C32.3133 27.3496 32.4267 27.3963 32.52 27.4896C32.6133 27.5763 32.66 27.6963 32.66 27.8496ZM34.233 29.5896C34.4264 29.5363 34.6864 29.4763 35.013 29.4096C35.3397 29.3429 35.7397 29.3096 36.213 29.3096C36.6064 29.3096 36.933 29.3663 37.193 29.4796C37.4597 29.5929 37.6697 29.7563 37.823 29.9696C37.983 30.1763 38.0964 30.4263 38.163 30.7196C38.2297 31.0129 38.263 31.3363 38.263 31.6896V34.5796H37.613V31.8996C37.613 31.5329 37.5864 31.2229 37.533 30.9696C37.4864 30.7163 37.403 30.5096 37.283 30.3496C37.1697 30.1896 37.0164 30.0763 36.823 30.0096C36.6364 29.9363 36.3997 29.8996 36.113 29.8996C35.8064 29.8996 35.5397 29.9163 35.313 29.9496C35.093 29.9829 34.9497 30.0129 34.883 30.0396V34.5796H34.233V29.5896ZM40.5364 29.4096H42.5964V29.9596H40.5364V32.7096C40.5364 33.0029 40.5597 33.2429 40.6064 33.4296C40.6597 33.6096 40.7331 33.7496 40.8264 33.8496C40.9197 33.9496 41.0331 34.0163 41.1664 34.0496C41.2997 34.0829 41.4464 34.0996 41.6064 34.0996C41.8797 34.0996 42.0997 34.0696 42.2664 34.0096C42.4331 33.9429 42.5631 33.8829 42.6564 33.8296L42.8164 34.3696C42.7231 34.4296 42.5597 34.4996 42.3264 34.5796C42.0931 34.6529 41.8397 34.6896 41.5664 34.6896C41.2464 34.6896 40.9764 34.6496 40.7564 34.5696C40.5431 34.4829 40.3697 34.3563 40.2364 34.1896C40.1097 34.0163 40.0197 33.8029 39.9664 33.5496C39.9131 33.2963 39.8864 32.9963 39.8864 32.6496V27.8896L40.5364 27.7696V29.4096ZM43.4836 31.9896C43.4836 31.5363 43.5469 31.1429 43.6736 30.8096C43.8069 30.4696 43.9769 30.1863 44.1836 29.9596C44.3969 29.7329 44.6369 29.5663 44.9036 29.4596C45.1769 29.3463 45.4569 29.2896 45.7436 29.2896C46.3769 29.2896 46.8803 29.4963 47.2536 29.9096C47.6336 30.3229 47.8236 30.9596 47.8236 31.8196C47.8236 31.8729 47.8203 31.9263 47.8136 31.9796C47.8136 32.0329 47.8103 32.0829 47.8036 32.1296H44.1736C44.1936 32.7629 44.3503 33.2496 44.6436 33.5896C44.9369 33.9296 45.4036 34.0996 46.0436 34.0996C46.3969 34.0996 46.6769 34.0663 46.8836 33.9996C47.0903 33.9329 47.2403 33.8763 47.3336 33.8296L47.4536 34.3896C47.3603 34.4429 47.1836 34.5063 46.9236 34.5796C46.6703 34.6529 46.3703 34.6896 46.0236 34.6896C45.5703 34.6896 45.1836 34.6229 44.8636 34.4896C44.5436 34.3563 44.2803 34.1696 44.0736 33.9296C43.8669 33.6896 43.7169 33.4063 43.6236 33.0796C43.5303 32.7463 43.4836 32.3829 43.4836 31.9896ZM47.1536 31.5796C47.1403 31.0396 47.0136 30.6196 46.7736 30.3196C46.5336 30.0196 46.1936 29.8696 45.7536 29.8696C45.5203 29.8696 45.3103 29.9163 45.1236 30.0096C44.9436 30.1029 44.7836 30.2296 44.6436 30.3896C44.5103 30.5429 44.4036 30.7229 44.3236 30.9296C44.2503 31.1363 44.2069 31.3529 44.1936 31.5796H47.1536ZM51.0321 29.3096C51.2454 29.3096 51.4454 29.3263 51.6321 29.3596C51.8254 29.3929 51.9588 29.4263 52.0321 29.4596L51.9021 30.0196C51.8488 29.9929 51.7388 29.9663 51.5721 29.9396C51.4121 29.9063 51.1988 29.8896 50.9321 29.8896C50.6521 29.8896 50.4254 29.9096 50.2521 29.9496C50.0854 29.9896 49.9754 30.0229 49.9221 30.0496V34.5796H49.2721V29.6496C49.4388 29.5763 49.6688 29.5029 49.9621 29.4296C50.2554 29.3496 50.6121 29.3096 51.0321 29.3096ZM53.6623 34.5796H53.0123V29.4096H53.6623V34.5796ZM53.8123 27.8496C53.8123 28.0029 53.7657 28.1263 53.6723 28.2196C53.579 28.3063 53.4657 28.3496 53.3323 28.3496C53.199 28.3496 53.0857 28.3063 52.9923 28.2196C52.899 28.1263 52.8523 28.0029 52.8523 27.8496C52.8523 27.6963 52.899 27.5763 52.9923 27.4896C53.0857 27.3963 53.199 27.3496 53.3323 27.3496C53.4657 27.3496 53.579 27.3963 53.6723 27.4896C53.7657 27.5763 53.8123 27.6963 53.8123 27.8496ZM59.7954 31.9996C59.7954 32.4063 59.7354 32.7763 59.6154 33.1096C59.5021 33.4429 59.3387 33.7263 59.1254 33.9596C58.9187 34.1929 58.6721 34.3763 58.3854 34.5096C58.0987 34.6363 57.7821 34.6996 57.4354 34.6996C57.0887 34.6996 56.7721 34.6363 56.4854 34.5096C56.1987 34.3763 55.9487 34.1929 55.7354 33.9596C55.5287 33.7263 55.3654 33.4429 55.2454 33.1096C55.1321 32.7763 55.0754 32.4063 55.0754 31.9996C55.0754 31.5929 55.1321 31.2229 55.2454 30.8896C55.3654 30.5563 55.5287 30.2729 55.7354 30.0396C55.9487 29.7996 56.1987 29.6163 56.4854 29.4896C56.7721 29.3563 57.0887 29.2896 57.4354 29.2896C57.7821 29.2896 58.0987 29.3563 58.3854 29.4896C58.6721 29.6163 58.9187 29.7996 59.1254 30.0396C59.3387 30.2729 59.5021 30.5563 59.6154 30.8896C59.7354 31.2229 59.7954 31.5929 59.7954 31.9996ZM59.1054 31.9996C59.1054 31.3529 58.9554 30.8396 58.6554 30.4596C58.3554 30.0729 57.9487 29.8796 57.4354 29.8796C56.9221 29.8796 56.5154 30.0729 56.2154 30.4596C55.9154 30.8396 55.7654 31.3529 55.7654 31.9996C55.7654 32.6463 55.9154 33.1596 56.2154 33.5396C56.5154 33.9196 56.9221 34.1096 57.4354 34.1096C57.9487 34.1096 58.3554 33.9196 58.6554 33.5396C58.9554 33.1596 59.1054 32.6463 59.1054 31.9996ZM62.9657 29.3096C63.179 29.3096 63.379 29.3263 63.5657 29.3596C63.759 29.3929 63.8924 29.4263 63.9657 29.4596L63.8357 30.0196C63.7824 29.9929 63.6724 29.9663 63.5057 29.9396C63.3457 29.9063 63.1324 29.8896 62.8657 29.8896C62.5857 29.8896 62.359 29.9096 62.1857 29.9496C62.019 29.9896 61.909 30.0229 61.8557 30.0496V34.5796H61.2057V29.6496C61.3724 29.5763 61.6024 29.5029 61.8957 29.4296C62.189 29.3496 62.5457 29.3096 62.9657 29.3096ZM71.3313 34.4196C71.138 34.4863 70.8913 34.5496 70.5913 34.6096C70.2913 34.6696 69.9113 34.6996 69.4513 34.6996C69.0713 34.6996 68.7247 34.6396 68.4113 34.5196C68.1047 34.3929 67.838 34.2129 67.6113 33.9796C67.3913 33.7463 67.218 33.4629 67.0913 33.1296C66.9713 32.7963 66.9113 32.4196 66.9113 31.9996C66.9113 31.6063 66.9613 31.2463 67.0613 30.9196C67.168 30.5863 67.3213 30.2996 67.5213 30.0596C67.7213 29.8196 67.9647 29.6329 68.2513 29.4996C68.5447 29.3663 68.878 29.2996 69.2513 29.2996C69.5913 29.2996 69.8847 29.3496 70.1313 29.4496C70.3847 29.5429 70.568 29.6329 70.6813 29.7196V26.9396L71.3313 26.8196V34.4196ZM70.6813 30.3496C70.6213 30.3029 70.5447 30.2529 70.4513 30.1996C70.3647 30.1463 70.2613 30.0963 70.1413 30.0496C70.0213 30.0029 69.8913 29.9663 69.7513 29.9396C69.6113 29.9063 69.4647 29.8896 69.3113 29.8896C68.9913 29.8896 68.7213 29.9463 68.5013 30.0596C68.288 30.1729 68.1147 30.3263 67.9813 30.5196C67.848 30.7063 67.7513 30.9296 67.6913 31.1896C67.6313 31.4429 67.6013 31.7129 67.6013 31.9996C67.6013 32.6796 67.7713 33.2029 68.1113 33.5696C68.4513 33.9296 68.9013 34.1096 69.4613 34.1096C69.7813 34.1096 70.038 34.0963 70.2313 34.0696C70.4313 34.0363 70.5813 34.0029 70.6813 33.9696V30.3496ZM72.7414 31.9896C72.7414 31.5363 72.8047 31.1429 72.9314 30.8096C73.0647 30.4696 73.2347 30.1863 73.4414 29.9596C73.6547 29.7329 73.8947 29.5663 74.1614 29.4596C74.4347 29.3463 74.7147 29.2896 75.0014 29.2896C75.6347 29.2896 76.1381 29.4963 76.5114 29.9096C76.8914 30.3229 77.0814 30.9596 77.0814 31.8196C77.0814 31.8729 77.0781 31.9263 77.0714 31.9796C77.0714 32.0329 77.0681 32.0829 77.0614 32.1296H73.4314C73.4514 32.7629 73.6081 33.2496 73.9014 33.5896C74.1947 33.9296 74.6614 34.0996 75.3014 34.0996C75.6547 34.0996 75.9347 34.0663 76.1414 33.9996C76.3481 33.9329 76.4981 33.8763 76.5914 33.8296L76.7114 34.3896C76.6181 34.4429 76.4414 34.5063 76.1814 34.5796C75.9281 34.6529 75.6281 34.6896 75.2814 34.6896C74.8281 34.6896 74.4414 34.6229 74.1214 34.4896C73.8014 34.3563 73.5381 34.1696 73.3314 33.9296C73.1247 33.6896 72.9747 33.4063 72.8814 33.0796C72.7881 32.7463 72.7414 32.3829 72.7414 31.9896ZM76.4114 31.5796C76.3981 31.0396 76.2714 30.6196 76.0314 30.3196C75.7914 30.0196 75.4514 29.8696 75.0114 29.8696C74.7781 29.8696 74.5681 29.9163 74.3814 30.0096C74.2014 30.1029 74.0414 30.2296 73.9014 30.3896C73.7681 30.5429 73.6614 30.7229 73.5814 30.9296C73.5081 31.1363 73.4647 31.3529 73.4514 31.5796H76.4114ZM79.5899 34.1196C79.9633 34.1196 80.2699 34.0596 80.5099 33.9396C80.7566 33.8129 80.8799 33.6029 80.8799 33.3096C80.8799 33.1696 80.8566 33.0496 80.8099 32.9496C80.7699 32.8496 80.6999 32.7596 80.5999 32.6796C80.4999 32.5996 80.3666 32.5229 80.1999 32.4496C80.0399 32.3763 79.8399 32.2896 79.5999 32.1896C79.4066 32.1096 79.2233 32.0296 79.0499 31.9496C78.8766 31.8629 78.7233 31.7663 78.5899 31.6596C78.4566 31.5463 78.3499 31.4129 78.2699 31.2596C78.1899 31.1063 78.1499 30.9196 78.1499 30.6996C78.1499 30.2796 78.3066 29.9396 78.6199 29.6796C78.9399 29.4196 79.3766 29.2896 79.9299 29.2896C80.2833 29.2896 80.5733 29.3196 80.7999 29.3796C81.0333 29.4396 81.1966 29.4929 81.2899 29.5396L81.1399 30.1196C81.0599 30.0796 80.9233 30.0263 80.7299 29.9596C80.5433 29.8929 80.2666 29.8596 79.8999 29.8596C79.7533 29.8596 79.6133 29.8763 79.4799 29.9096C79.3533 29.9363 79.2399 29.9829 79.1399 30.0496C79.0399 30.1096 78.9599 30.1896 78.8999 30.2896C78.8399 30.3829 78.8099 30.4996 78.8099 30.6396C78.8099 30.7796 78.8366 30.8996 78.8899 30.9996C78.9433 31.0996 79.0199 31.1896 79.1199 31.2696C79.2266 31.3429 79.3533 31.4129 79.4999 31.4796C79.6533 31.5463 79.8266 31.6196 80.0199 31.6996C80.2199 31.7796 80.4099 31.8629 80.5899 31.9496C80.7766 32.0296 80.9399 32.1296 81.0799 32.2496C81.2199 32.3629 81.3333 32.5029 81.4199 32.6696C81.5066 32.8296 81.5499 33.0329 81.5499 33.2796C81.5499 33.7463 81.3733 34.0996 81.0199 34.3396C80.6733 34.5796 80.1966 34.6996 79.5899 34.6996C79.1366 34.6996 78.7899 34.6596 78.5499 34.5796C78.3099 34.5063 78.1499 34.4496 78.0699 34.4096L78.2399 33.8196C78.2599 33.8329 78.3033 33.8563 78.3699 33.8896C78.4366 33.9163 78.5266 33.9496 78.6399 33.9896C78.7533 34.0229 78.8866 34.0529 79.0399 34.0796C79.1999 34.1063 79.3833 34.1196 79.5899 34.1196ZM83.4573 34.5796H82.8073V29.4096H83.4573V34.5796ZM83.6073 27.8496C83.6073 28.0029 83.5606 28.1263 83.4673 28.2196C83.3739 28.3063 83.2606 28.3496 83.1273 28.3496C82.9939 28.3496 82.8806 28.3063 82.7873 28.2196C82.6939 28.1263 82.6473 28.0029 82.6473 27.8496C82.6473 27.6963 82.6939 27.5763 82.7873 27.4896C82.8806 27.3963 82.9939 27.3496 83.1273 27.3496C83.2606 27.3496 83.3739 27.3963 83.4673 27.4896C83.5606 27.5763 83.6073 27.6963 83.6073 27.8496ZM88.5503 33.9796C88.5103 34.0129 88.4503 34.0529 88.3703 34.0996C88.2903 34.1396 88.1903 34.1829 88.0703 34.2296C87.957 34.2763 87.8236 34.3163 87.6703 34.3496C87.5236 34.3763 87.357 34.3896 87.1703 34.3896C86.8703 34.3896 86.5803 34.3429 86.3003 34.2496C86.0203 34.1563 85.7736 34.0096 85.5603 33.8096C85.3536 33.6096 85.187 33.3529 85.0603 33.0396C84.9336 32.7196 84.8703 32.3329 84.8703 31.8796C84.8703 31.5129 84.927 31.1729 85.0403 30.8596C85.1536 30.5463 85.3136 30.2763 85.5203 30.0496C85.7336 29.8163 85.9903 29.6363 86.2903 29.5096C86.597 29.3763 86.9403 29.3096 87.3203 29.3096C87.8003 29.3096 88.1836 29.3429 88.4703 29.4096C88.7636 29.4696 89.0036 29.5296 89.1903 29.5896V34.3096C89.1903 35.0829 88.9903 35.6329 88.5903 35.9596C88.1903 36.2929 87.587 36.4596 86.7803 36.4596C86.447 36.4596 86.1436 36.4329 85.8703 36.3796C85.6036 36.3329 85.3736 36.2763 85.1803 36.2096L85.3103 35.6196C85.4703 35.6929 85.687 35.7563 85.9603 35.8096C86.2403 35.8629 86.5203 35.8896 86.8003 35.8896C87.4136 35.8896 87.857 35.7696 88.1303 35.5296C88.4103 35.2963 88.5503 34.8929 88.5503 34.3196V33.9796ZM88.5403 30.0396C88.427 30.0063 88.2803 29.9763 88.1003 29.9496C87.9203 29.9163 87.6636 29.8996 87.3303 29.8996C87.0503 29.8996 86.8003 29.9496 86.5803 30.0496C86.367 30.1429 86.1836 30.2796 86.0303 30.4596C85.877 30.6329 85.7603 30.8429 85.6803 31.0896C85.6003 31.3296 85.5603 31.5963 85.5603 31.8896C85.5603 32.2296 85.607 32.5229 85.7003 32.7696C85.7936 33.0096 85.9136 33.2063 86.0603 33.3596C86.2136 33.5129 86.387 33.6263 86.5803 33.6996C86.7736 33.7663 86.9703 33.7996 87.1703 33.7996C87.4636 33.7996 87.7303 33.7563 87.9703 33.6696C88.217 33.5829 88.407 33.4829 88.5403 33.3696V30.0396ZM90.9127 29.5896C91.1061 29.5363 91.3661 29.4763 91.6927 29.4096C92.0194 29.3429 92.4194 29.3096 92.8927 29.3096C93.2861 29.3096 93.6127 29.3663 93.8727 29.4796C94.1394 29.5929 94.3494 29.7563 94.5027 29.9696C94.6627 30.1763 94.7761 30.4263 94.8427 30.7196C94.9094 31.0129 94.9427 31.3363 94.9427 31.6896V34.5796H94.2927V31.8996C94.2927 31.5329 94.2661 31.2229 94.2127 30.9696C94.1661 30.7163 94.0827 30.5096 93.9627 30.3496C93.8494 30.1896 93.6961 30.0763 93.5027 30.0096C93.3161 29.9363 93.0794 29.8996 92.7927 29.8996C92.4861 29.8996 92.2194 29.9163 91.9927 29.9496C91.7727 29.9829 91.6294 30.0129 91.5627 30.0396V34.5796H90.9127V29.5896ZM96.2961 31.9896C96.2961 31.5363 96.3594 31.1429 96.4861 30.8096C96.6194 30.4696 96.7894 30.1863 96.9961 29.9596C97.2094 29.7329 97.4494 29.5663 97.7161 29.4596C97.9894 29.3463 98.2694 29.2896 98.5561 29.2896C99.1894 29.2896 99.6928 29.4963 100.066 29.9096C100.446 30.3229 100.636 30.9596 100.636 31.8196C100.636 31.8729 100.633 31.9263 100.626 31.9796C100.626 32.0329 100.623 32.0829 100.616 32.1296H96.9861C97.0061 32.7629 97.1628 33.2496 97.4561 33.5896C97.7494 33.9296 98.2161 34.0996 98.8561 34.0996C99.2094 34.0996 99.4894 34.0663 99.6961 33.9996C99.9028 33.9329 100.053 33.8763 100.146 33.8296L100.266 34.3896C100.173 34.4429 99.9961 34.5063 99.7361 34.5796C99.4828 34.6529 99.1828 34.6896 98.8361 34.6896C98.3828 34.6896 97.9961 34.6229 97.6761 34.4896C97.3561 34.3563 97.0928 34.1696 96.8861 33.9296C96.6794 33.6896 96.5294 33.4063 96.4361 33.0796C96.3428 32.7463 96.2961 32.3829 96.2961 31.9896ZM99.9661 31.5796C99.9528 31.0396 99.8261 30.6196 99.5861 30.3196C99.3461 30.0196 99.0061 29.8696 98.5661 29.8696C98.3328 29.8696 98.1228 29.9163 97.9361 30.0096C97.7561 30.1029 97.5961 30.2296 97.4561 30.3896C97.3228 30.5429 97.2161 30.7229 97.1361 30.9296C97.0628 31.1363 97.0194 31.3529 97.0061 31.5796H99.9661ZM103.845 29.3096C104.058 29.3096 104.258 29.3263 104.445 29.3596C104.638 29.3929 104.771 29.4263 104.845 29.4596L104.715 30.0196C104.661 29.9929 104.551 29.9663 104.385 29.9396C104.225 29.9063 104.011 29.8896 103.745 29.8896C103.465 29.8896 103.238 29.9096 103.065 29.9496C102.898 29.9896 102.788 30.0229 102.735 30.0496V34.5796H102.085V29.6496C102.251 29.5763 102.481 29.5029 102.775 29.4296C103.068 29.3496 103.425 29.3096 103.845 29.3096Z" fill="#C1C1C1"/>
<line y1="-0.35" x2="121.429" y2="-0.35" transform="matrix(0.999999 0.00114653 -0.00122475 0.999999 34 24)" stroke="#C1C1C1" stroke-width="0.7"/>
</svg>
