<svg width="137" height="37" viewBox="0 0 137 37" fill="none" xmlns="http://www.w3.org/2000/svg">
<path d="M3.434 5.1V17H2.329V5.1H3.434ZM8.024 16.473V17H3.383V16.473H8.024ZM7.293 10.88V11.39H3.383V10.88H7.293ZM8.024 5.1V5.627H3.383V5.1H8.024ZM9.061 14.246L8.075 17H5.253L5.865 16.473C6.46567 16.473 6.953 16.3823 7.327 16.201C7.71233 16.0083 8.024 15.742 8.262 15.402C8.5 15.062 8.70967 14.6767 8.891 14.246H9.061ZM7.293 11.356V12.478H7.123V12.223C7.123 11.9963 7.04367 11.8037 6.885 11.645C6.72633 11.475 6.53367 11.39 6.307 11.39V11.356H7.293ZM7.293 9.792V10.914H6.307V10.88C6.53367 10.8687 6.72633 10.7837 6.885 10.625C7.04367 10.455 7.123 10.2567 7.123 10.03V9.792H7.293ZM8.024 5.576V6.936H7.854V6.63C7.854 6.358 7.75767 6.12567 7.565 5.933C7.37233 5.729 7.13433 5.62133 6.851 5.61V5.576H8.024ZM8.024 4.794V5.287L5.95 5.1C6.19933 5.1 6.46 5.083 6.732 5.049C7.01533 5.015 7.276 4.97533 7.514 4.93C7.752 4.88467 7.922 4.83933 8.024 4.794ZM2.38 15.759V17H1.02V16.83C1.02 16.83 1.054 16.83 1.122 16.83C1.20133 16.83 1.241 16.83 1.241 16.83C1.53567 16.83 1.785 16.728 1.989 16.524C2.20433 16.3087 2.31767 16.0537 2.329 15.759H2.38ZM2.38 6.341H2.329C2.329 6.04633 2.22133 5.797 2.006 5.593C1.79067 5.37767 1.53567 5.27 1.241 5.27C1.241 5.27 1.207 5.27 1.139 5.27C1.071 5.27 1.037 5.27 1.037 5.27L1.02 5.1H2.38V6.341ZM12.9755 6.8V17H11.8875V6.8H12.9755ZM17.5485 16.473L17.5145 17H12.9415V16.473H17.5485ZM18.5005 14.569L17.5655 17H14.9815L15.5595 16.473C16.1262 16.473 16.5795 16.3937 16.9195 16.235C17.2708 16.065 17.5542 15.8383 17.7695 15.555C17.9848 15.2603 18.1718 14.9317 18.3305 14.569H18.5005ZM11.9215 15.912L12.1425 17H10.6635V16.83C10.6635 16.83 10.7032 16.83 10.7825 16.83C10.8618 16.83 10.9015 16.83 10.9015 16.83C11.1848 16.83 11.4172 16.7393 11.5985 16.558C11.7798 16.3767 11.8762 16.1613 11.8875 15.912H11.9215ZM12.9245 7.888V6.8H14.1825V6.97C14.1825 6.97 14.1485 6.97 14.0805 6.97C14.0125 6.97 13.9785 6.97 13.9785 6.97C13.7065 6.97 13.4685 7.06067 13.2645 7.242C13.0718 7.412 12.9755 7.62733 12.9755 7.888H12.9245ZM11.9215 7.888H11.8875C11.8762 7.62733 11.7742 7.412 11.5815 7.242C11.3888 7.06067 11.1508 6.97 10.8675 6.97C10.8675 6.97 10.8335 6.97 10.7655 6.97C10.6975 6.97 10.6635 6.97 10.6635 6.97V6.8H11.9215V7.888ZM21.6747 6.8V17H20.5867V6.8H21.6747ZM26.2477 16.473L26.2137 17H21.6407V16.473H26.2477ZM25.4487 11.645V12.155H21.6407V11.645H25.4487ZM26.2307 6.8V7.327H21.6407V6.8H26.2307ZM27.1997 14.569L26.2647 17H23.6807L24.2587 16.473C24.8254 16.473 25.2787 16.3937 25.6187 16.235C25.9701 16.065 26.2534 15.8383 26.4687 15.555C26.6841 15.2603 26.8711 14.9317 27.0297 14.569H27.1997ZM25.4487 12.121V13.09H25.2617V12.869C25.2617 12.6763 25.2051 12.512 25.0917 12.376C24.9784 12.2287 24.8027 12.155 24.5647 12.155V12.121H25.4487ZM25.4487 10.71V11.679H24.5647V11.645C24.8027 11.645 24.9784 11.577 25.0917 11.441C25.2051 11.2937 25.2617 11.1237 25.2617 10.931V10.71H25.4487ZM26.2307 7.276V8.449H26.0437V8.194C26.0437 7.956 25.9644 7.752 25.8057 7.582C25.6584 7.412 25.4544 7.327 25.1937 7.327V7.276H26.2307ZM26.2307 6.528V6.97L24.2927 6.8C24.6441 6.8 25.0181 6.77167 25.4147 6.715C25.8114 6.647 26.0834 6.58467 26.2307 6.528ZM20.6207 15.912L20.8417 17H19.3627V16.83C19.3627 16.83 19.4024 16.83 19.4817 16.83C19.5611 16.83 19.6007 16.83 19.6007 16.83C19.8841 16.83 20.1164 16.7393 20.2977 16.558C20.4791 16.3767 20.5754 16.1613 20.5867 15.912H20.6207ZM20.6207 7.871H20.5867C20.5754 7.61033 20.4791 7.395 20.2977 7.225C20.1164 7.055 19.8841 6.97 19.6007 6.97C19.6007 6.97 19.5611 6.97 19.4817 6.97C19.4024 6.97 19.3627 6.97 19.3627 6.97V6.8H20.8417L20.6207 7.871ZM29.544 6.545L38.962 15.419L39.132 17.238L29.714 8.313L29.544 6.545ZM29.578 15.946V17H28.303V16.83C28.303 16.83 28.3483 16.83 28.439 16.83C28.541 16.83 28.592 16.83 28.592 16.83C28.8527 16.83 29.0737 16.745 29.255 16.575C29.4363 16.405 29.527 16.1953 29.527 15.946H29.578ZM30.292 15.946C30.292 16.1953 30.3827 16.405 30.564 16.575C30.7567 16.745 30.9777 16.83 31.227 16.83C31.227 16.83 31.2723 16.83 31.363 16.83C31.465 16.83 31.516 16.83 31.516 16.83V17H30.241V15.946H30.292ZM29.544 6.545L30.275 7.497L30.292 17H29.527V8.67C29.527 8.092 29.4987 7.59333 29.442 7.174C29.3967 6.75467 29.374 6.545 29.374 6.545H29.544ZM39.132 6.8V15.062C39.132 15.4247 39.1433 15.776 39.166 16.116C39.1887 16.4447 39.2113 16.7167 39.234 16.932C39.268 17.136 39.285 17.238 39.285 17.238H39.132L38.384 16.337V6.8H39.132ZM39.081 7.854V6.8H40.356V6.97C40.356 6.97 40.305 6.97 40.203 6.97C40.1123 6.97 40.067 6.97 40.067 6.97C39.8177 6.97 39.5967 7.055 39.404 7.225C39.2227 7.395 39.132 7.60467 39.132 7.854H39.081ZM38.384 7.854C38.3727 7.60467 38.2763 7.395 38.095 7.225C37.9137 7.055 37.6927 6.97 37.432 6.97C37.432 6.97 37.381 6.97 37.279 6.97C37.1883 6.97 37.143 6.97 37.143 6.97V6.8H38.418V7.854H38.384ZM46.6681 6.562L51.3431 16.898H50.0001L46.3791 8.075L46.6681 6.562ZM43.3871 15.759C43.2624 16.099 43.2794 16.3653 43.4381 16.558C43.5967 16.7393 43.7781 16.83 43.9821 16.83H44.1181V17H40.8711V16.83C40.8711 16.83 40.8937 16.83 40.9391 16.83C40.9844 16.83 41.0071 16.83 41.0071 16.83C41.2451 16.83 41.4887 16.7507 41.7381 16.592C41.9874 16.422 42.2027 16.1443 42.3841 15.759H43.3871ZM46.6681 6.562L46.7871 7.735L42.8941 16.949H41.8231L45.8521 8.313C45.8521 8.313 45.8804 8.245 45.9371 8.109C46.0051 7.973 46.0787 7.80867 46.1581 7.616C46.2487 7.412 46.3281 7.21367 46.3961 7.021C46.4641 6.82833 46.5037 6.67533 46.5151 6.562H46.6681ZM48.6741 13.039V13.549H44.1691V13.039H48.6741ZM49.5411 15.759H50.8331C51.0031 16.1443 51.2127 16.422 51.4621 16.592C51.7114 16.7507 51.9494 16.83 52.1761 16.83C52.1761 16.83 52.1987 16.83 52.2441 16.83C52.2894 16.83 52.3121 16.83 52.3121 16.83V17H48.8271V16.83H48.9631C49.1557 16.83 49.3314 16.7393 49.4901 16.558C49.6487 16.3653 49.6657 16.099 49.5411 15.759ZM59.6915 5.1H61.9355C62.6608 5.1 63.2842 5.23033 63.8055 5.491C64.3268 5.75167 64.7292 6.13133 65.0125 6.63C65.2958 7.11733 65.4375 7.701 65.4375 8.381C65.4375 8.90233 65.3355 9.37267 65.1315 9.792C64.9275 10.2 64.6555 10.5457 64.3155 10.829C63.9755 11.1123 63.5902 11.3277 63.1595 11.475C62.7288 11.611 62.2812 11.662 61.8165 11.628C61.3632 11.594 60.9212 11.4637 60.4905 11.237V11.067C60.4905 11.067 60.5868 11.084 60.7795 11.118C60.9722 11.1407 61.2158 11.1463 61.5105 11.135C61.8165 11.1123 62.1338 11.05 62.4625 10.948C62.8025 10.8347 63.1142 10.642 63.3975 10.37C63.6922 10.098 63.9132 9.71833 64.0605 9.231C64.0945 9.10633 64.1228 8.95333 64.1455 8.772C64.1682 8.57933 64.1738 8.39233 64.1625 8.211C64.1512 7.429 63.9472 6.8 63.5505 6.324C63.1538 5.848 62.5928 5.61 61.8675 5.61H59.8615C59.8615 5.61 59.8445 5.57033 59.8105 5.491C59.7878 5.40033 59.7595 5.31533 59.7255 5.236C59.7028 5.14533 59.6915 5.1 59.6915 5.1ZM59.9125 5.1V17H58.8075V5.1H59.9125ZM58.8585 15.759V17H57.4985V16.83C57.4985 16.83 57.5325 16.83 57.6005 16.83C57.6798 16.83 57.7195 16.83 57.7195 16.83C58.0142 16.83 58.2635 16.728 58.4675 16.524C58.6828 16.3087 58.7962 16.0537 58.8075 15.759H58.8585ZM58.8585 6.341H58.8075C58.8075 6.04633 58.6998 5.797 58.4845 5.593C58.2692 5.37767 58.0142 5.27 57.7195 5.27C57.7195 5.27 57.6855 5.27 57.6175 5.27C57.5495 5.27 57.5155 5.27 57.5155 5.27L57.4985 5.1H58.8585V6.341ZM59.8615 15.759H59.9125C59.9238 16.0537 60.0315 16.3087 60.2355 16.524C60.4508 16.728 60.7058 16.83 61.0005 16.83C61.0005 16.83 61.0345 16.83 61.1025 16.83C61.1818 16.83 61.2215 16.83 61.2215 16.83V17H59.8615V15.759ZM70.4747 6.562L75.1497 16.898H73.8067L70.1857 8.075L70.4747 6.562ZM67.1937 15.759C67.069 16.099 67.086 16.3653 67.2447 16.558C67.4034 16.7393 67.5847 16.83 67.7887 16.83H67.9247V17H64.6777V16.83C64.6777 16.83 64.7004 16.83 64.7457 16.83C64.791 16.83 64.8137 16.83 64.8137 16.83C65.0517 16.83 65.2954 16.7507 65.5447 16.592C65.794 16.422 66.0094 16.1443 66.1907 15.759H67.1937ZM70.4747 6.562L70.5937 7.735L66.7007 16.949H65.6297L69.6587 8.313C69.6587 8.313 69.687 8.245 69.7437 8.109C69.8117 7.973 69.8854 7.80867 69.9647 7.616C70.0554 7.412 70.1347 7.21367 70.2027 7.021C70.2707 6.82833 70.3104 6.67533 70.3217 6.562H70.4747ZM72.4807 13.039V13.549H67.9757V13.039H72.4807ZM73.3477 15.759H74.6397C74.8097 16.1443 75.0194 16.422 75.2687 16.592C75.518 16.7507 75.756 16.83 75.9827 16.83C75.9827 16.83 76.0054 16.83 76.0507 16.83C76.096 16.83 76.1187 16.83 76.1187 16.83V17H72.6337V16.83H72.7697C72.9624 16.83 73.138 16.7393 73.2967 16.558C73.4554 16.3653 73.4724 16.099 73.3477 15.759ZM79.0612 6.8H80.9482C81.7415 6.8 82.4272 6.919 83.0052 7.157C83.5832 7.38367 84.0308 7.718 84.3482 8.16C84.6655 8.59067 84.8242 9.10633 84.8242 9.707C84.8242 10.353 84.6768 10.9083 84.3822 11.373C84.0988 11.8263 83.7192 12.1777 83.2432 12.427C82.7672 12.665 82.2402 12.784 81.6622 12.784C81.0842 12.7727 80.5062 12.6253 79.9282 12.342V12.172C79.9282 12.172 80.0188 12.189 80.2002 12.223C80.3928 12.257 80.6365 12.274 80.9312 12.274C81.2258 12.2627 81.5375 12.2117 81.8662 12.121C82.1948 12.019 82.5008 11.8377 82.7842 11.577C83.0788 11.3163 83.3112 10.9423 83.4812 10.455C83.5265 10.3303 83.5548 10.183 83.5662 10.013C83.5888 9.843 83.6002 9.68433 83.6002 9.537C83.6002 8.84567 83.3622 8.30167 82.8862 7.905C82.4102 7.50833 81.7528 7.31 80.9142 7.31H79.2482C79.2482 7.31 79.2312 7.27033 79.1972 7.191C79.1745 7.10033 79.1462 7.01533 79.1122 6.936C79.0782 6.84533 79.0612 6.8 79.0612 6.8ZM79.2822 6.8V17H78.1942V6.8H79.2822ZM78.2282 15.912L78.4492 17H76.9702V16.83C76.9702 16.83 77.0098 16.83 77.0892 16.83C77.1685 16.83 77.2082 16.83 77.2082 16.83C77.4802 16.83 77.7068 16.7393 77.8882 16.558C78.0808 16.3767 78.1828 16.1613 78.1942 15.912H78.2282ZM78.2282 7.871H78.1942C78.1828 7.61033 78.0808 7.395 77.8882 7.225C77.7068 7.055 77.4802 6.97 77.2082 6.97C77.2082 6.97 77.1685 6.97 77.0892 6.97C77.0098 6.97 76.9702 6.97 76.9702 6.97V6.8H78.4492L78.2282 7.871ZM79.2312 15.912H79.2652C79.2765 16.1613 79.3728 16.3767 79.5542 16.558C79.7468 16.7393 79.9792 16.83 80.2512 16.83C80.2625 16.83 80.3022 16.83 80.3702 16.83C80.4495 16.83 80.4892 16.83 80.4892 16.83V17H79.0102L79.2312 15.912ZM88.8316 6.8V17H87.7606V6.8H88.8316ZM87.8116 15.912V17H86.3666V16.83C86.3666 16.83 86.4063 16.83 86.4856 16.83C86.565 16.83 86.6046 16.83 86.6046 16.83C86.922 16.83 87.1883 16.7393 87.4036 16.558C87.6303 16.3767 87.7493 16.1613 87.7606 15.912H87.8116ZM88.7806 15.912H88.8316C88.843 16.1613 88.9563 16.3767 89.1716 16.558C89.3983 16.7393 89.6703 16.83 89.9876 16.83C89.9876 16.83 90.0216 16.83 90.0896 16.83C90.169 16.83 90.2086 16.83 90.2086 16.83L90.2256 17H88.7806V15.912ZM88.7806 7.888V6.8H90.2256L90.2086 6.97C90.2086 6.97 90.169 6.97 90.0896 6.97C90.0216 6.97 89.9876 6.97 89.9876 6.97C89.6703 6.97 89.3983 7.06067 89.1716 7.242C88.9563 7.412 88.843 7.62733 88.8316 7.888H88.7806ZM87.8116 7.888H87.7606C87.7493 7.62733 87.6303 7.412 87.4036 7.242C87.1883 7.06067 86.922 6.97 86.6046 6.97C86.5933 6.97 86.548 6.97 86.4686 6.97C86.4006 6.97 86.3666 6.97 86.3666 6.97V6.8H87.8116V7.888ZM99.9826 6.562C99.9826 6.562 99.9826 6.59033 99.9826 6.647C99.9826 6.69233 99.9826 6.715 99.9826 6.715L93.1826 17H91.9926V16.847L98.3336 7.293H92.2476V6.783H98.0616C98.2996 6.783 98.5546 6.77167 98.8266 6.749C99.0986 6.72633 99.3422 6.698 99.5576 6.664C99.7729 6.63 99.9146 6.596 99.9826 6.562ZM100.136 16.49L100.017 17H93.0976V16.49H100.136ZM101.054 14.569L100.136 17H97.5856L98.1636 16.49C98.7189 16.4787 99.1609 16.3937 99.4896 16.235C99.8296 16.0763 100.107 15.8553 100.323 15.572C100.538 15.2773 100.725 14.943 100.884 14.569H101.054ZM92.2476 7.259H93.2846V7.293C93.0352 7.30433 92.8312 7.395 92.6726 7.565C92.5139 7.72367 92.4346 7.92767 92.4346 8.177V8.432H92.2476V7.259ZM92.2476 6.511C92.3496 6.545 92.5082 6.58467 92.7236 6.63C92.9389 6.664 93.1712 6.698 93.4206 6.732C93.6812 6.75467 93.9249 6.77167 94.1516 6.783L92.2476 6.953V6.511ZM112.059 6.8V17H110.971V6.8H112.059ZM104.698 6.8V17H103.61V6.8H104.698ZM111.141 11.713V12.223H104.511V11.713H111.141ZM103.661 15.912V17H102.42V16.83C102.42 16.83 102.454 16.83 102.522 16.83C102.59 16.83 102.624 16.83 102.624 16.83C102.896 16.83 103.123 16.7393 103.304 16.558C103.497 16.3767 103.599 16.1613 103.61 15.912H103.661ZM104.647 15.912H104.698C104.698 16.1613 104.795 16.3767 104.987 16.558C105.18 16.7393 105.412 16.83 105.684 16.83C105.684 16.83 105.718 16.83 105.786 16.83C105.854 16.83 105.888 16.83 105.888 16.83V17H104.647V15.912ZM104.647 7.888V6.8H105.888V6.97C105.888 6.97 105.854 6.97 105.786 6.97C105.718 6.97 105.684 6.97 105.684 6.97C105.412 6.97 105.18 7.06067 104.987 7.242C104.795 7.412 104.698 7.62733 104.698 7.888H104.647ZM103.661 7.888H103.61C103.599 7.62733 103.497 7.412 103.304 7.242C103.123 7.06067 102.896 6.97 102.624 6.97C102.624 6.97 102.59 6.97 102.522 6.97C102.454 6.97 102.42 6.97 102.42 6.97V6.8H103.661V7.888ZM111.022 15.912V17H109.781V16.83C109.781 16.83 109.815 16.83 109.883 16.83C109.951 16.83 109.985 16.83 109.985 16.83C110.257 16.83 110.484 16.7393 110.665 16.558C110.858 16.3767 110.96 16.1613 110.971 15.912H111.022ZM112.008 15.912H112.059C112.071 16.1613 112.167 16.3767 112.348 16.558C112.541 16.7393 112.773 16.83 113.045 16.83C113.045 16.83 113.079 16.83 113.147 16.83C113.215 16.83 113.249 16.83 113.249 16.83V17H112.008V15.912ZM112.008 7.888V6.8H113.249V6.97C113.249 6.97 113.215 6.97 113.147 6.97C113.079 6.97 113.045 6.97 113.045 6.97C112.773 6.97 112.541 7.06067 112.348 7.242C112.167 7.412 112.071 7.62733 112.059 7.888H112.008ZM111.022 7.888H110.971C110.96 7.62733 110.858 7.412 110.665 7.242C110.484 7.06067 110.257 6.97 109.985 6.97C109.985 6.97 109.951 6.97 109.883 6.97C109.815 6.97 109.781 6.97 109.781 6.97V6.8H111.022V7.888ZM117.008 6.8V13.226C117.008 14.3253 117.286 15.1923 117.841 15.827C118.408 16.4617 119.178 16.779 120.153 16.779C121.23 16.779 122.074 16.4787 122.686 15.878C123.309 15.2773 123.621 14.4557 123.621 13.413V6.8H124.403V13.413C124.403 14.5917 124.023 15.5267 123.264 16.218C122.516 16.898 121.485 17.238 120.17 17.238C118.867 17.238 117.83 16.898 117.059 16.218C116.3 15.538 115.92 14.6087 115.92 13.43V6.8H117.008ZM115.954 6.8V7.701H115.92C115.909 7.497 115.824 7.327 115.665 7.191C115.518 7.04367 115.331 6.97 115.104 6.97C115.104 6.97 115.059 6.97 114.968 6.97C114.889 6.97 114.849 6.97 114.849 6.97V6.8H115.954ZM118.079 6.8V6.97C118.079 6.97 118.034 6.97 117.943 6.97C117.864 6.97 117.824 6.97 117.824 6.97C117.609 6.97 117.416 7.04367 117.246 7.191C117.087 7.327 117.008 7.497 117.008 7.701H116.974V6.8H118.079ZM123.655 6.8V7.701H123.621C123.621 7.497 123.542 7.327 123.383 7.191C123.224 7.04367 123.032 6.97 122.805 6.97C122.805 6.97 122.76 6.97 122.669 6.97C122.59 6.97 122.55 6.97 122.55 6.97V6.8H123.655ZM125.474 6.8V6.97C125.474 6.97 125.429 6.97 125.338 6.97C125.259 6.97 125.219 6.97 125.219 6.97C125.004 6.97 124.817 7.04367 124.658 7.191C124.499 7.327 124.414 7.497 124.403 7.701H124.369V6.8H125.474ZM130.849 11.305L135.286 16.133C135.479 16.3597 135.683 16.5297 135.898 16.643C136.114 16.7563 136.403 16.8187 136.765 16.83V17H136.136C136 17 135.83 16.9943 135.626 16.983C135.434 16.9603 135.218 16.9207 134.98 16.864C134.754 16.796 134.521 16.6997 134.283 16.575C134.057 16.439 133.841 16.2577 133.637 16.031C133.637 16.031 133.547 15.9347 133.365 15.742C133.195 15.538 132.969 15.283 132.685 14.977C132.402 14.6597 132.096 14.331 131.767 13.991C131.45 13.6397 131.15 13.311 130.866 13.005C130.583 12.6877 130.351 12.4327 130.169 12.24C129.988 12.036 129.897 11.934 129.897 11.934L130.849 11.305ZM135.388 6.919L130.696 11.934H129.897L134.164 6.919H135.388ZM136.493 6.8V6.97H136.425C136.074 6.97 135.745 7.02667 135.439 7.14C135.145 7.25333 134.901 7.42333 134.708 7.65L133.552 7.633C133.677 7.47433 133.694 7.327 133.603 7.191C133.524 7.04367 133.382 6.97 133.178 6.97H133.025V6.8H136.425H136.493ZM129.302 6.8V17H128.214V6.8H129.302ZM128.248 15.912V17H127.007V16.83C127.007 16.83 127.041 16.83 127.109 16.83C127.177 16.83 127.211 16.83 127.211 16.83C127.483 16.83 127.716 16.7393 127.908 16.558C128.101 16.3767 128.203 16.1613 128.214 15.912H128.248ZM129.251 15.912H129.302C129.302 16.1613 129.399 16.3767 129.591 16.558C129.784 16.7393 130.022 16.83 130.305 16.83C130.305 16.83 130.334 16.83 130.39 16.83C130.458 16.83 130.492 16.83 130.492 16.83V17H129.251V15.912ZM129.251 7.888V6.8H130.492V6.97C130.492 6.97 130.458 6.97 130.39 6.97C130.334 6.97 130.3 6.97 130.288 6.97C130.016 6.97 129.784 7.06067 129.591 7.242C129.399 7.412 129.302 7.62733 129.302 7.888H129.251ZM128.248 7.888H128.214C128.203 7.62733 128.101 7.412 127.908 7.242C127.716 7.06067 127.483 6.97 127.211 6.97C127.211 6.97 127.177 6.97 127.109 6.97C127.041 6.97 127.007 6.97 127.007 6.97V6.8H128.248V7.888Z" fill="#C1C1C1"/>
<path d="M38.964 33.808C38.732 33.888 38.436 33.964 38.076 34.036C37.716 34.108 37.26 34.144 36.708 34.144C36.252 34.144 35.836 34.072 35.46 33.928C35.092 33.776 34.772 33.56 34.5 33.28C34.236 33 34.028 32.66 33.876 32.26C33.732 31.86 33.66 31.408 33.66 30.904C33.66 30.432 33.72 30 33.84 29.608C33.968 29.208 34.152 28.864 34.392 28.576C34.632 28.288 34.924 28.064 35.268 27.904C35.62 27.744 36.02 27.664 36.468 27.664C36.876 27.664 37.228 27.724 37.524 27.844C37.828 27.956 38.048 28.064 38.184 28.168V24.832L38.964 24.688V33.808ZM38.184 28.924C38.112 28.868 38.02 28.808 37.908 28.744C37.804 28.68 37.68 28.62 37.536 28.564C37.392 28.508 37.236 28.464 37.068 28.432C36.9 28.392 36.724 28.372 36.54 28.372C36.156 28.372 35.832 28.44 35.568 28.576C35.312 28.712 35.104 28.896 34.944 29.128C34.784 29.352 34.668 29.62 34.596 29.932C34.524 30.236 34.488 30.56 34.488 30.904C34.488 31.72 34.692 32.348 35.1 32.788C35.508 33.22 36.048 33.436 36.72 33.436C37.104 33.436 37.412 33.42 37.644 33.388C37.884 33.348 38.064 33.308 38.184 33.268V28.924ZM40.6561 30.892C40.6561 30.348 40.7321 29.876 40.8841 29.476C41.0441 29.068 41.2481 28.728 41.4961 28.456C41.7521 28.184 42.0401 27.984 42.3601 27.856C42.6881 27.72 43.0241 27.652 43.3681 27.652C44.1281 27.652 44.7321 27.9 45.1801 28.396C45.6361 28.892 45.8641 29.656 45.8641 30.688C45.8641 30.752 45.8601 30.816 45.8521 30.88C45.8521 30.944 45.8481 31.004 45.8401 31.06H41.4841C41.5081 31.82 41.6961 32.404 42.0481 32.812C42.4001 33.22 42.9601 33.424 43.7281 33.424C44.1521 33.424 44.4881 33.384 44.7361 33.304C44.9841 33.224 45.1641 33.156 45.2761 33.1L45.4201 33.772C45.3081 33.836 45.0961 33.912 44.7841 34C44.4801 34.088 44.1201 34.132 43.7041 34.132C43.1601 34.132 42.6961 34.052 42.3121 33.892C41.9281 33.732 41.6121 33.508 41.3641 33.22C41.1161 32.932 40.9361 32.592 40.8241 32.2C40.7121 31.8 40.6561 31.364 40.6561 30.892ZM45.0601 30.4C45.0441 29.752 44.8921 29.248 44.6041 28.888C44.3161 28.528 43.9081 28.348 43.3801 28.348C43.1001 28.348 42.8481 28.404 42.6241 28.516C42.4081 28.628 42.2161 28.78 42.0481 28.972C41.8881 29.156 41.7601 29.372 41.6641 29.62C41.5761 29.868 41.5241 30.128 41.5081 30.4H45.0601ZM48.8743 33.448C49.3223 33.448 49.6903 33.376 49.9783 33.232C50.2743 33.08 50.4223 32.828 50.4223 32.476C50.4223 32.308 50.3943 32.164 50.3383 32.044C50.2903 31.924 50.2063 31.816 50.0863 31.72C49.9663 31.624 49.8063 31.532 49.6063 31.444C49.4143 31.356 49.1743 31.252 48.8863 31.132C48.6543 31.036 48.4343 30.94 48.2263 30.844C48.0183 30.74 47.8343 30.624 47.6743 30.496C47.5143 30.36 47.3863 30.2 47.2903 30.016C47.1943 29.832 47.1463 29.608 47.1463 29.344C47.1463 28.84 47.3343 28.432 47.7103 28.12C48.0943 27.808 48.6183 27.652 49.2823 27.652C49.7063 27.652 50.0543 27.688 50.3263 27.76C50.6063 27.832 50.8023 27.896 50.9143 27.952L50.7343 28.648C50.6383 28.6 50.4743 28.536 50.2423 28.456C50.0183 28.376 49.6863 28.336 49.2463 28.336C49.0703 28.336 48.9023 28.356 48.7423 28.396C48.5903 28.428 48.4543 28.484 48.3343 28.564C48.2143 28.636 48.1183 28.732 48.0463 28.852C47.9743 28.964 47.9383 29.104 47.9383 29.272C47.9383 29.44 47.9703 29.584 48.0343 29.704C48.0983 29.824 48.1903 29.932 48.3103 30.028C48.4383 30.116 48.5903 30.2 48.7663 30.28C48.9503 30.36 49.1583 30.448 49.3903 30.544C49.6303 30.64 49.8583 30.74 50.0743 30.844C50.2983 30.94 50.4943 31.06 50.6623 31.204C50.8303 31.34 50.9663 31.508 51.0703 31.708C51.1743 31.9 51.2263 32.144 51.2263 32.44C51.2263 33 51.0143 33.424 50.5903 33.712C50.1743 34 49.6023 34.144 48.8743 34.144C48.3303 34.144 47.9143 34.096 47.6263 34C47.3383 33.912 47.1463 33.844 47.0503 33.796L47.2543 33.088C47.2783 33.104 47.3303 33.132 47.4103 33.172C47.4903 33.204 47.5983 33.244 47.7343 33.292C47.8703 33.332 48.0303 33.368 48.2143 33.4C48.4063 33.432 48.6263 33.448 48.8743 33.448ZM53.5151 34H52.7351V27.796H53.5151V34ZM53.6951 25.924C53.6951 26.108 53.6391 26.256 53.5271 26.368C53.4151 26.472 53.2791 26.524 53.1191 26.524C52.9591 26.524 52.8231 26.472 52.7111 26.368C52.5991 26.256 52.5431 26.108 52.5431 25.924C52.5431 25.74 52.5991 25.596 52.7111 25.492C52.8231 25.38 52.9591 25.324 53.1191 25.324C53.2791 25.324 53.4151 25.38 53.5271 25.492C53.6391 25.596 53.6951 25.74 53.6951 25.924ZM59.6268 33.28C59.5788 33.32 59.5068 33.368 59.4108 33.424C59.3148 33.472 59.1948 33.524 59.0508 33.58C58.9148 33.636 58.7548 33.684 58.5708 33.724C58.3948 33.756 58.1948 33.772 57.9708 33.772C57.6108 33.772 57.2628 33.716 56.9268 33.604C56.5908 33.492 56.2948 33.316 56.0388 33.076C55.7908 32.836 55.5908 32.528 55.4388 32.152C55.2868 31.768 55.2108 31.304 55.2108 30.76C55.2108 30.32 55.2788 29.912 55.4148 29.536C55.5508 29.16 55.7428 28.836 55.9908 28.564C56.2468 28.284 56.5548 28.068 56.9148 27.916C57.2828 27.756 57.6948 27.676 58.1508 27.676C58.7268 27.676 59.1868 27.716 59.5308 27.796C59.8828 27.868 60.1708 27.94 60.3948 28.012V33.676C60.3948 34.604 60.1548 35.264 59.6748 35.656C59.1948 36.056 58.4708 36.256 57.5028 36.256C57.1028 36.256 56.7388 36.224 56.4108 36.16C56.0908 36.104 55.8148 36.036 55.5828 35.956L55.7388 35.248C55.9308 35.336 56.1908 35.412 56.5188 35.476C56.8548 35.54 57.1908 35.572 57.5268 35.572C58.2628 35.572 58.7948 35.428 59.1228 35.14C59.4588 34.86 59.6268 34.376 59.6268 33.688V33.28ZM59.6148 28.552C59.4788 28.512 59.3028 28.476 59.0868 28.444C58.8708 28.404 58.5628 28.384 58.1628 28.384C57.8268 28.384 57.5268 28.444 57.2628 28.564C57.0068 28.676 56.7868 28.84 56.6028 29.056C56.4188 29.264 56.2788 29.516 56.1828 29.812C56.0868 30.1 56.0388 30.42 56.0388 30.772C56.0388 31.18 56.0948 31.532 56.2068 31.828C56.3188 32.116 56.4628 32.352 56.6388 32.536C56.8228 32.72 57.0308 32.856 57.2628 32.944C57.4948 33.024 57.7308 33.064 57.9708 33.064C58.3228 33.064 58.6428 33.012 58.9308 32.908C59.2268 32.804 59.4548 32.684 59.6148 32.548V28.552ZM62.4617 28.012C62.6937 27.948 63.0057 27.876 63.3977 27.796C63.7897 27.716 64.2697 27.676 64.8377 27.676C65.3097 27.676 65.7017 27.744 66.0137 27.88C66.3337 28.016 66.5857 28.212 66.7697 28.468C66.9617 28.716 67.0977 29.016 67.1777 29.368C67.2577 29.72 67.2977 30.108 67.2977 30.532V34H66.5177V30.784C66.5177 30.344 66.4857 29.972 66.4217 29.668C66.3657 29.364 66.2657 29.116 66.1217 28.924C65.9857 28.732 65.8017 28.596 65.5697 28.516C65.3457 28.428 65.0617 28.384 64.7177 28.384C64.3497 28.384 64.0297 28.404 63.7577 28.444C63.4937 28.484 63.3217 28.52 63.2417 28.552V34H62.4617V28.012ZM73.2962 33.448C73.7442 33.448 74.1122 33.376 74.4002 33.232C74.6962 33.08 74.8442 32.828 74.8442 32.476C74.8442 32.308 74.8162 32.164 74.7602 32.044C74.7122 31.924 74.6282 31.816 74.5082 31.72C74.3882 31.624 74.2282 31.532 74.0282 31.444C73.8362 31.356 73.5962 31.252 73.3082 31.132C73.0762 31.036 72.8562 30.94 72.6482 30.844C72.4402 30.74 72.2562 30.624 72.0962 30.496C71.9362 30.36 71.8082 30.2 71.7122 30.016C71.6162 29.832 71.5682 29.608 71.5682 29.344C71.5682 28.84 71.7562 28.432 72.1322 28.12C72.5162 27.808 73.0402 27.652 73.7042 27.652C74.1282 27.652 74.4762 27.688 74.7482 27.76C75.0282 27.832 75.2242 27.896 75.3362 27.952L75.1562 28.648C75.0602 28.6 74.8962 28.536 74.6642 28.456C74.4402 28.376 74.1082 28.336 73.6682 28.336C73.4922 28.336 73.3242 28.356 73.1642 28.396C73.0122 28.428 72.8762 28.484 72.7562 28.564C72.6362 28.636 72.5402 28.732 72.4682 28.852C72.3962 28.964 72.3602 29.104 72.3602 29.272C72.3602 29.44 72.3922 29.584 72.4562 29.704C72.5202 29.824 72.6122 29.932 72.7322 30.028C72.8602 30.116 73.0122 30.2 73.1882 30.28C73.3722 30.36 73.5802 30.448 73.8122 30.544C74.0522 30.64 74.2802 30.74 74.4962 30.844C74.7202 30.94 74.9162 31.06 75.0842 31.204C75.2522 31.34 75.3882 31.508 75.4922 31.708C75.5962 31.9 75.6482 32.144 75.6482 32.44C75.6482 33 75.4362 33.424 75.0122 33.712C74.5962 34 74.0242 34.144 73.2962 34.144C72.7522 34.144 72.3362 34.096 72.0482 34C71.7602 33.912 71.5682 33.844 71.4722 33.796L71.6762 33.088C71.7002 33.104 71.7522 33.132 71.8322 33.172C71.9122 33.204 72.0202 33.244 72.1562 33.292C72.2922 33.332 72.4522 33.368 72.6362 33.4C72.8282 33.432 73.0482 33.448 73.2962 33.448ZM77.889 27.796H80.361V28.456H77.889V31.756C77.889 32.108 77.917 32.396 77.973 32.62C78.037 32.836 78.125 33.004 78.237 33.124C78.349 33.244 78.485 33.324 78.645 33.364C78.805 33.404 78.981 33.424 79.173 33.424C79.501 33.424 79.765 33.388 79.965 33.316C80.165 33.236 80.321 33.164 80.433 33.1L80.625 33.748C80.513 33.82 80.317 33.904 80.037 34C79.757 34.088 79.453 34.132 79.125 34.132C78.741 34.132 78.417 34.084 78.153 33.988C77.897 33.884 77.689 33.732 77.529 33.532C77.377 33.324 77.269 33.068 77.205 32.764C77.141 32.46 77.109 32.1 77.109 31.684V25.972L77.889 25.828V27.796ZM86.5616 33.784C86.3296 33.848 86.0176 33.92 85.6256 34C85.2336 34.08 84.7536 34.12 84.1856 34.12C83.7216 34.12 83.3336 34.052 83.0216 33.916C82.7096 33.78 82.4576 33.588 82.2656 33.34C82.0736 33.092 81.9336 32.792 81.8456 32.44C81.7656 32.088 81.7256 31.7 81.7256 31.276V27.796H82.5056V31.024C82.5056 31.464 82.5376 31.836 82.6016 32.14C82.6656 32.444 82.7696 32.692 82.9136 32.884C83.0576 33.068 83.2416 33.204 83.4656 33.292C83.6976 33.372 83.9776 33.412 84.3056 33.412C84.6736 33.412 84.9936 33.392 85.2656 33.352C85.5376 33.312 85.7096 33.276 85.7816 33.244V27.796H86.5616V33.784ZM93.5617 33.808C93.3297 33.888 93.0337 33.964 92.6737 34.036C92.3137 34.108 91.8577 34.144 91.3057 34.144C90.8497 34.144 90.4337 34.072 90.0577 33.928C89.6897 33.776 89.3697 33.56 89.0977 33.28C88.8337 33 88.6257 32.66 88.4737 32.26C88.3297 31.86 88.2577 31.408 88.2577 30.904C88.2577 30.432 88.3177 30 88.4377 29.608C88.5657 29.208 88.7497 28.864 88.9897 28.576C89.2297 28.288 89.5217 28.064 89.8657 27.904C90.2177 27.744 90.6177 27.664 91.0657 27.664C91.4737 27.664 91.8257 27.724 92.1217 27.844C92.4257 27.956 92.6457 28.064 92.7817 28.168V24.832L93.5617 24.688V33.808ZM92.7817 28.924C92.7097 28.868 92.6177 28.808 92.5057 28.744C92.4017 28.68 92.2777 28.62 92.1337 28.564C91.9897 28.508 91.8337 28.464 91.6657 28.432C91.4977 28.392 91.3217 28.372 91.1377 28.372C90.7537 28.372 90.4297 28.44 90.1657 28.576C89.9097 28.712 89.7017 28.896 89.5417 29.128C89.3817 29.352 89.2657 29.62 89.1937 29.932C89.1217 30.236 89.0857 30.56 89.0857 30.904C89.0857 31.72 89.2897 32.348 89.6977 32.788C90.1057 33.22 90.6457 33.436 91.3177 33.436C91.7017 33.436 92.0097 33.42 92.2417 33.388C92.4817 33.348 92.6617 33.308 92.7817 33.268V28.924ZM96.4058 34H95.6258V27.796H96.4058V34ZM96.5858 25.924C96.5858 26.108 96.5298 26.256 96.4178 26.368C96.3058 26.472 96.1698 26.524 96.0098 26.524C95.8498 26.524 95.7138 26.472 95.6018 26.368C95.4898 26.256 95.4338 26.108 95.4338 25.924C95.4338 25.74 95.4898 25.596 95.6018 25.492C95.7138 25.38 95.8498 25.324 96.0098 25.324C96.1698 25.324 96.3058 25.38 96.4178 25.492C96.5298 25.596 96.5858 25.74 96.5858 25.924ZM103.765 30.904C103.765 31.392 103.693 31.836 103.549 32.236C103.413 32.636 103.217 32.976 102.961 33.256C102.713 33.536 102.417 33.756 102.073 33.916C101.729 34.068 101.349 34.144 100.933 34.144C100.517 34.144 100.137 34.068 99.7934 33.916C99.4494 33.756 99.1494 33.536 98.8934 33.256C98.6454 32.976 98.4494 32.636 98.3054 32.236C98.1694 31.836 98.1014 31.392 98.1014 30.904C98.1014 30.416 98.1694 29.972 98.3054 29.572C98.4494 29.172 98.6454 28.832 98.8934 28.552C99.1494 28.264 99.4494 28.044 99.7934 27.892C100.137 27.732 100.517 27.652 100.933 27.652C101.349 27.652 101.729 27.732 102.073 27.892C102.417 28.044 102.713 28.264 102.961 28.552C103.217 28.832 103.413 29.172 103.549 29.572C103.693 29.972 103.765 30.416 103.765 30.904ZM102.937 30.904C102.937 30.128 102.757 29.512 102.397 29.056C102.037 28.592 101.549 28.36 100.933 28.36C100.317 28.36 99.8294 28.592 99.4694 29.056C99.1094 29.512 98.9294 30.128 98.9294 30.904C98.9294 31.68 99.1094 32.296 99.4694 32.752C99.8294 33.208 100.317 33.436 100.933 33.436C101.549 33.436 102.037 33.208 102.397 32.752C102.757 32.296 102.937 31.68 102.937 30.904Z" fill="#C1C1C1"/>
</svg>
