<svg width="137" height="38" viewBox="0 0 137 38" fill="none" xmlns="http://www.w3.org/2000/svg">
<path d="M3.434 5.6V17.5H2.329V5.6H3.434ZM8.024 16.973V17.5H3.383V16.973H8.024ZM7.293 11.38V11.89H3.383V11.38H7.293ZM8.024 5.6V6.127H3.383V5.6H8.024ZM9.061 14.746L8.075 17.5H5.253L5.865 16.973C6.46567 16.973 6.953 16.8823 7.327 16.701C7.71233 16.5083 8.024 16.242 8.262 15.902C8.5 15.562 8.70967 15.1767 8.891 14.746H9.061ZM7.293 11.856V12.978H7.123V12.723C7.123 12.4963 7.04367 12.3037 6.885 12.145C6.72633 11.975 6.53367 11.89 6.307 11.89V11.856H7.293ZM7.293 10.292V11.414H6.307V11.38C6.53367 11.3687 6.72633 11.2837 6.885 11.125C7.04367 10.955 7.123 10.7567 7.123 10.53V10.292H7.293ZM8.024 6.076V7.436H7.854V7.13C7.854 6.858 7.75767 6.62567 7.565 6.433C7.37233 6.229 7.13433 6.12133 6.851 6.11V6.076H8.024ZM8.024 5.294V5.787L5.95 5.6C6.19933 5.6 6.46 5.583 6.732 5.549C7.01533 5.515 7.276 5.47533 7.514 5.43C7.752 5.38467 7.922 5.33933 8.024 5.294ZM2.38 16.259V17.5H1.02V17.33C1.02 17.33 1.054 17.33 1.122 17.33C1.20133 17.33 1.241 17.33 1.241 17.33C1.53567 17.33 1.785 17.228 1.989 17.024C2.20433 16.8087 2.31767 16.5537 2.329 16.259H2.38ZM2.38 6.841H2.329C2.329 6.54633 2.22133 6.297 2.006 6.093C1.79067 5.87767 1.53567 5.77 1.241 5.77C1.241 5.77 1.207 5.77 1.139 5.77C1.071 5.77 1.037 5.77 1.037 5.77L1.02 5.6H2.38V6.841ZM12.9755 7.3V17.5H11.8875V7.3H12.9755ZM17.5485 16.973L17.5145 17.5H12.9415V16.973H17.5485ZM18.5005 15.069L17.5655 17.5H14.9815L15.5595 16.973C16.1262 16.973 16.5795 16.8937 16.9195 16.735C17.2708 16.565 17.5542 16.3383 17.7695 16.055C17.9848 15.7603 18.1718 15.4317 18.3305 15.069H18.5005ZM11.9215 16.412L12.1425 17.5H10.6635V17.33C10.6635 17.33 10.7032 17.33 10.7825 17.33C10.8618 17.33 10.9015 17.33 10.9015 17.33C11.1848 17.33 11.4172 17.2393 11.5985 17.058C11.7798 16.8767 11.8762 16.6613 11.8875 16.412H11.9215ZM12.9245 8.388V7.3H14.1825V7.47C14.1825 7.47 14.1485 7.47 14.0805 7.47C14.0125 7.47 13.9785 7.47 13.9785 7.47C13.7065 7.47 13.4685 7.56067 13.2645 7.742C13.0718 7.912 12.9755 8.12733 12.9755 8.388H12.9245ZM11.9215 8.388H11.8875C11.8762 8.12733 11.7742 7.912 11.5815 7.742C11.3888 7.56067 11.1508 7.47 10.8675 7.47C10.8675 7.47 10.8335 7.47 10.7655 7.47C10.6975 7.47 10.6635 7.47 10.6635 7.47V7.3H11.9215V8.388ZM21.6747 7.3V17.5H20.5867V7.3H21.6747ZM26.2477 16.973L26.2137 17.5H21.6407V16.973H26.2477ZM25.4487 12.145V12.655H21.6407V12.145H25.4487ZM26.2307 7.3V7.827H21.6407V7.3H26.2307ZM27.1997 15.069L26.2647 17.5H23.6807L24.2587 16.973C24.8254 16.973 25.2787 16.8937 25.6187 16.735C25.9701 16.565 26.2534 16.3383 26.4687 16.055C26.6841 15.7603 26.8711 15.4317 27.0297 15.069H27.1997ZM25.4487 12.621V13.59H25.2617V13.369C25.2617 13.1763 25.2051 13.012 25.0917 12.876C24.9784 12.7287 24.8027 12.655 24.5647 12.655V12.621H25.4487ZM25.4487 11.21V12.179H24.5647V12.145C24.8027 12.145 24.9784 12.077 25.0917 11.941C25.2051 11.7937 25.2617 11.6237 25.2617 11.431V11.21H25.4487ZM26.2307 7.776V8.949H26.0437V8.694C26.0437 8.456 25.9644 8.252 25.8057 8.082C25.6584 7.912 25.4544 7.827 25.1937 7.827V7.776H26.2307ZM26.2307 7.028V7.47L24.2927 7.3C24.6441 7.3 25.0181 7.27167 25.4147 7.215C25.8114 7.147 26.0834 7.08467 26.2307 7.028ZM20.6207 16.412L20.8417 17.5H19.3627V17.33C19.3627 17.33 19.4024 17.33 19.4817 17.33C19.5611 17.33 19.6007 17.33 19.6007 17.33C19.8841 17.33 20.1164 17.2393 20.2977 17.058C20.4791 16.8767 20.5754 16.6613 20.5867 16.412H20.6207ZM20.6207 8.371H20.5867C20.5754 8.11033 20.4791 7.895 20.2977 7.725C20.1164 7.555 19.8841 7.47 19.6007 7.47C19.6007 7.47 19.5611 7.47 19.4817 7.47C19.4024 7.47 19.3627 7.47 19.3627 7.47V7.3H20.8417L20.6207 8.371ZM29.544 7.045L38.962 15.919L39.132 17.738L29.714 8.813L29.544 7.045ZM29.578 16.446V17.5H28.303V17.33C28.303 17.33 28.3483 17.33 28.439 17.33C28.541 17.33 28.592 17.33 28.592 17.33C28.8527 17.33 29.0737 17.245 29.255 17.075C29.4363 16.905 29.527 16.6953 29.527 16.446H29.578ZM30.292 16.446C30.292 16.6953 30.3827 16.905 30.564 17.075C30.7567 17.245 30.9777 17.33 31.227 17.33C31.227 17.33 31.2723 17.33 31.363 17.33C31.465 17.33 31.516 17.33 31.516 17.33V17.5H30.241V16.446H30.292ZM29.544 7.045L30.275 7.997L30.292 17.5H29.527V9.17C29.527 8.592 29.4987 8.09333 29.442 7.674C29.3967 7.25467 29.374 7.045 29.374 7.045H29.544ZM39.132 7.3V15.562C39.132 15.9247 39.1433 16.276 39.166 16.616C39.1887 16.9447 39.2113 17.2167 39.234 17.432C39.268 17.636 39.285 17.738 39.285 17.738H39.132L38.384 16.837V7.3H39.132ZM39.081 8.354V7.3H40.356V7.47C40.356 7.47 40.305 7.47 40.203 7.47C40.1123 7.47 40.067 7.47 40.067 7.47C39.8177 7.47 39.5967 7.555 39.404 7.725C39.2227 7.895 39.132 8.10467 39.132 8.354H39.081ZM38.384 8.354C38.3727 8.10467 38.2763 7.895 38.095 7.725C37.9137 7.555 37.6927 7.47 37.432 7.47C37.432 7.47 37.381 7.47 37.279 7.47C37.1883 7.47 37.143 7.47 37.143 7.47V7.3H38.418V8.354H38.384ZM46.6681 7.062L51.3431 17.398H50.0001L46.3791 8.575L46.6681 7.062ZM43.3871 16.259C43.2624 16.599 43.2794 16.8653 43.4381 17.058C43.5967 17.2393 43.7781 17.33 43.9821 17.33H44.1181V17.5H40.8711V17.33C40.8711 17.33 40.8937 17.33 40.9391 17.33C40.9844 17.33 41.0071 17.33 41.0071 17.33C41.2451 17.33 41.4887 17.2507 41.7381 17.092C41.9874 16.922 42.2027 16.6443 42.3841 16.259H43.3871ZM46.6681 7.062L46.7871 8.235L42.8941 17.449H41.8231L45.8521 8.813C45.8521 8.813 45.8804 8.745 45.9371 8.609C46.0051 8.473 46.0787 8.30867 46.1581 8.116C46.2487 7.912 46.3281 7.71367 46.3961 7.521C46.4641 7.32833 46.5037 7.17533 46.5151 7.062H46.6681ZM48.6741 13.539V14.049H44.1691V13.539H48.6741ZM49.5411 16.259H50.8331C51.0031 16.6443 51.2127 16.922 51.4621 17.092C51.7114 17.2507 51.9494 17.33 52.1761 17.33C52.1761 17.33 52.1987 17.33 52.2441 17.33C52.2894 17.33 52.3121 17.33 52.3121 17.33V17.5H48.8271V17.33H48.9631C49.1557 17.33 49.3314 17.2393 49.4901 17.058C49.6487 16.8653 49.6657 16.599 49.5411 16.259ZM59.6915 5.6H61.9355C62.6608 5.6 63.2842 5.73033 63.8055 5.991C64.3268 6.25167 64.7292 6.63133 65.0125 7.13C65.2958 7.61733 65.4375 8.201 65.4375 8.881C65.4375 9.40233 65.3355 9.87267 65.1315 10.292C64.9275 10.7 64.6555 11.0457 64.3155 11.329C63.9755 11.6123 63.5902 11.8277 63.1595 11.975C62.7288 12.111 62.2812 12.162 61.8165 12.128C61.3632 12.094 60.9212 11.9637 60.4905 11.737V11.567C60.4905 11.567 60.5868 11.584 60.7795 11.618C60.9722 11.6407 61.2158 11.6463 61.5105 11.635C61.8165 11.6123 62.1338 11.55 62.4625 11.448C62.8025 11.3347 63.1142 11.142 63.3975 10.87C63.6922 10.598 63.9132 10.2183 64.0605 9.731C64.0945 9.60633 64.1228 9.45333 64.1455 9.272C64.1682 9.07933 64.1738 8.89233 64.1625 8.711C64.1512 7.929 63.9472 7.3 63.5505 6.824C63.1538 6.348 62.5928 6.11 61.8675 6.11H59.8615C59.8615 6.11 59.8445 6.07033 59.8105 5.991C59.7878 5.90033 59.7595 5.81533 59.7255 5.736C59.7028 5.64533 59.6915 5.6 59.6915 5.6ZM59.9125 5.6V17.5H58.8075V5.6H59.9125ZM58.8585 16.259V17.5H57.4985V17.33C57.4985 17.33 57.5325 17.33 57.6005 17.33C57.6798 17.33 57.7195 17.33 57.7195 17.33C58.0142 17.33 58.2635 17.228 58.4675 17.024C58.6828 16.8087 58.7962 16.5537 58.8075 16.259H58.8585ZM58.8585 6.841H58.8075C58.8075 6.54633 58.6998 6.297 58.4845 6.093C58.2692 5.87767 58.0142 5.77 57.7195 5.77C57.7195 5.77 57.6855 5.77 57.6175 5.77C57.5495 5.77 57.5155 5.77 57.5155 5.77L57.4985 5.6H58.8585V6.841ZM59.8615 16.259H59.9125C59.9238 16.5537 60.0315 16.8087 60.2355 17.024C60.4508 17.228 60.7058 17.33 61.0005 17.33C61.0005 17.33 61.0345 17.33 61.1025 17.33C61.1818 17.33 61.2215 17.33 61.2215 17.33V17.5H59.8615V16.259ZM70.4747 7.062L75.1497 17.398H73.8067L70.1857 8.575L70.4747 7.062ZM67.1937 16.259C67.069 16.599 67.086 16.8653 67.2447 17.058C67.4034 17.2393 67.5847 17.33 67.7887 17.33H67.9247V17.5H64.6777V17.33C64.6777 17.33 64.7004 17.33 64.7457 17.33C64.791 17.33 64.8137 17.33 64.8137 17.33C65.0517 17.33 65.2954 17.2507 65.5447 17.092C65.794 16.922 66.0094 16.6443 66.1907 16.259H67.1937ZM70.4747 7.062L70.5937 8.235L66.7007 17.449H65.6297L69.6587 8.813C69.6587 8.813 69.687 8.745 69.7437 8.609C69.8117 8.473 69.8854 8.30867 69.9647 8.116C70.0554 7.912 70.1347 7.71367 70.2027 7.521C70.2707 7.32833 70.3104 7.17533 70.3217 7.062H70.4747ZM72.4807 13.539V14.049H67.9757V13.539H72.4807ZM73.3477 16.259H74.6397C74.8097 16.6443 75.0194 16.922 75.2687 17.092C75.518 17.2507 75.756 17.33 75.9827 17.33C75.9827 17.33 76.0054 17.33 76.0507 17.33C76.096 17.33 76.1187 17.33 76.1187 17.33V17.5H72.6337V17.33H72.7697C72.9624 17.33 73.138 17.2393 73.2967 17.058C73.4554 16.8653 73.4724 16.599 73.3477 16.259ZM79.0612 7.3H80.9482C81.7415 7.3 82.4272 7.419 83.0052 7.657C83.5832 7.88367 84.0308 8.218 84.3482 8.66C84.6655 9.09067 84.8242 9.60633 84.8242 10.207C84.8242 10.853 84.6768 11.4083 84.3822 11.873C84.0988 12.3263 83.7192 12.6777 83.2432 12.927C82.7672 13.165 82.2402 13.284 81.6622 13.284C81.0842 13.2727 80.5062 13.1253 79.9282 12.842V12.672C79.9282 12.672 80.0188 12.689 80.2002 12.723C80.3928 12.757 80.6365 12.774 80.9312 12.774C81.2258 12.7627 81.5375 12.7117 81.8662 12.621C82.1948 12.519 82.5008 12.3377 82.7842 12.077C83.0788 11.8163 83.3112 11.4423 83.4812 10.955C83.5265 10.8303 83.5548 10.683 83.5662 10.513C83.5888 10.343 83.6002 10.1843 83.6002 10.037C83.6002 9.34567 83.3622 8.80167 82.8862 8.405C82.4102 8.00833 81.7528 7.81 80.9142 7.81H79.2482C79.2482 7.81 79.2312 7.77033 79.1972 7.691C79.1745 7.60033 79.1462 7.51533 79.1122 7.436C79.0782 7.34533 79.0612 7.3 79.0612 7.3ZM79.2822 7.3V17.5H78.1942V7.3H79.2822ZM78.2282 16.412L78.4492 17.5H76.9702V17.33C76.9702 17.33 77.0098 17.33 77.0892 17.33C77.1685 17.33 77.2082 17.33 77.2082 17.33C77.4802 17.33 77.7068 17.2393 77.8882 17.058C78.0808 16.8767 78.1828 16.6613 78.1942 16.412H78.2282ZM78.2282 8.371H78.1942C78.1828 8.11033 78.0808 7.895 77.8882 7.725C77.7068 7.555 77.4802 7.47 77.2082 7.47C77.2082 7.47 77.1685 7.47 77.0892 7.47C77.0098 7.47 76.9702 7.47 76.9702 7.47V7.3H78.4492L78.2282 8.371ZM79.2312 16.412H79.2652C79.2765 16.6613 79.3728 16.8767 79.5542 17.058C79.7468 17.2393 79.9792 17.33 80.2512 17.33C80.2625 17.33 80.3022 17.33 80.3702 17.33C80.4495 17.33 80.4892 17.33 80.4892 17.33V17.5H79.0102L79.2312 16.412ZM88.8316 7.3V17.5H87.7606V7.3H88.8316ZM87.8116 16.412V17.5H86.3666V17.33C86.3666 17.33 86.4063 17.33 86.4856 17.33C86.565 17.33 86.6046 17.33 86.6046 17.33C86.922 17.33 87.1883 17.2393 87.4036 17.058C87.6303 16.8767 87.7493 16.6613 87.7606 16.412H87.8116ZM88.7806 16.412H88.8316C88.843 16.6613 88.9563 16.8767 89.1716 17.058C89.3983 17.2393 89.6703 17.33 89.9876 17.33C89.9876 17.33 90.0216 17.33 90.0896 17.33C90.169 17.33 90.2086 17.33 90.2086 17.33L90.2256 17.5H88.7806V16.412ZM88.7806 8.388V7.3H90.2256L90.2086 7.47C90.2086 7.47 90.169 7.47 90.0896 7.47C90.0216 7.47 89.9876 7.47 89.9876 7.47C89.6703 7.47 89.3983 7.56067 89.1716 7.742C88.9563 7.912 88.843 8.12733 88.8316 8.388H88.7806ZM87.8116 8.388H87.7606C87.7493 8.12733 87.6303 7.912 87.4036 7.742C87.1883 7.56067 86.922 7.47 86.6046 7.47C86.5933 7.47 86.548 7.47 86.4686 7.47C86.4006 7.47 86.3666 7.47 86.3666 7.47V7.3H87.8116V8.388ZM99.9826 7.062C99.9826 7.062 99.9826 7.09033 99.9826 7.147C99.9826 7.19233 99.9826 7.215 99.9826 7.215L93.1826 17.5H91.9926V17.347L98.3336 7.793H92.2476V7.283H98.0616C98.2996 7.283 98.5546 7.27167 98.8266 7.249C99.0986 7.22633 99.3422 7.198 99.5576 7.164C99.7729 7.13 99.9146 7.096 99.9826 7.062ZM100.136 16.99L100.017 17.5H93.0976V16.99H100.136ZM101.054 15.069L100.136 17.5H97.5856L98.1636 16.99C98.7189 16.9787 99.1609 16.8937 99.4896 16.735C99.8296 16.5763 100.107 16.3553 100.323 16.072C100.538 15.7773 100.725 15.443 100.884 15.069H101.054ZM92.2476 7.759H93.2846V7.793C93.0352 7.80433 92.8312 7.895 92.6726 8.065C92.5139 8.22367 92.4346 8.42767 92.4346 8.677V8.932H92.2476V7.759ZM92.2476 7.011C92.3496 7.045 92.5082 7.08467 92.7236 7.13C92.9389 7.164 93.1712 7.198 93.4206 7.232C93.6812 7.25467 93.9249 7.27167 94.1516 7.283L92.2476 7.453V7.011ZM112.059 7.3V17.5H110.971V7.3H112.059ZM104.698 7.3V17.5H103.61V7.3H104.698ZM111.141 12.213V12.723H104.511V12.213H111.141ZM103.661 16.412V17.5H102.42V17.33C102.42 17.33 102.454 17.33 102.522 17.33C102.59 17.33 102.624 17.33 102.624 17.33C102.896 17.33 103.123 17.2393 103.304 17.058C103.497 16.8767 103.599 16.6613 103.61 16.412H103.661ZM104.647 16.412H104.698C104.698 16.6613 104.795 16.8767 104.987 17.058C105.18 17.2393 105.412 17.33 105.684 17.33C105.684 17.33 105.718 17.33 105.786 17.33C105.854 17.33 105.888 17.33 105.888 17.33V17.5H104.647V16.412ZM104.647 8.388V7.3H105.888V7.47C105.888 7.47 105.854 7.47 105.786 7.47C105.718 7.47 105.684 7.47 105.684 7.47C105.412 7.47 105.18 7.56067 104.987 7.742C104.795 7.912 104.698 8.12733 104.698 8.388H104.647ZM103.661 8.388H103.61C103.599 8.12733 103.497 7.912 103.304 7.742C103.123 7.56067 102.896 7.47 102.624 7.47C102.624 7.47 102.59 7.47 102.522 7.47C102.454 7.47 102.42 7.47 102.42 7.47V7.3H103.661V8.388ZM111.022 16.412V17.5H109.781V17.33C109.781 17.33 109.815 17.33 109.883 17.33C109.951 17.33 109.985 17.33 109.985 17.33C110.257 17.33 110.484 17.2393 110.665 17.058C110.858 16.8767 110.96 16.6613 110.971 16.412H111.022ZM112.008 16.412H112.059C112.071 16.6613 112.167 16.8767 112.348 17.058C112.541 17.2393 112.773 17.33 113.045 17.33C113.045 17.33 113.079 17.33 113.147 17.33C113.215 17.33 113.249 17.33 113.249 17.33V17.5H112.008V16.412ZM112.008 8.388V7.3H113.249V7.47C113.249 7.47 113.215 7.47 113.147 7.47C113.079 7.47 113.045 7.47 113.045 7.47C112.773 7.47 112.541 7.56067 112.348 7.742C112.167 7.912 112.071 8.12733 112.059 8.388H112.008ZM111.022 8.388H110.971C110.96 8.12733 110.858 7.912 110.665 7.742C110.484 7.56067 110.257 7.47 109.985 7.47C109.985 7.47 109.951 7.47 109.883 7.47C109.815 7.47 109.781 7.47 109.781 7.47V7.3H111.022V8.388ZM117.008 7.3V13.726C117.008 14.8253 117.286 15.6923 117.841 16.327C118.408 16.9617 119.178 17.279 120.153 17.279C121.23 17.279 122.074 16.9787 122.686 16.378C123.309 15.7773 123.621 14.9557 123.621 13.913V7.3H124.403V13.913C124.403 15.0917 124.023 16.0267 123.264 16.718C122.516 17.398 121.485 17.738 120.17 17.738C118.867 17.738 117.83 17.398 117.059 16.718C116.3 16.038 115.92 15.1087 115.92 13.93V7.3H117.008ZM115.954 7.3V8.201H115.92C115.909 7.997 115.824 7.827 115.665 7.691C115.518 7.54367 115.331 7.47 115.104 7.47C115.104 7.47 115.059 7.47 114.968 7.47C114.889 7.47 114.849 7.47 114.849 7.47V7.3H115.954ZM118.079 7.3V7.47C118.079 7.47 118.034 7.47 117.943 7.47C117.864 7.47 117.824 7.47 117.824 7.47C117.609 7.47 117.416 7.54367 117.246 7.691C117.087 7.827 117.008 7.997 117.008 8.201H116.974V7.3H118.079ZM123.655 7.3V8.201H123.621C123.621 7.997 123.542 7.827 123.383 7.691C123.224 7.54367 123.032 7.47 122.805 7.47C122.805 7.47 122.76 7.47 122.669 7.47C122.59 7.47 122.55 7.47 122.55 7.47V7.3H123.655ZM125.474 7.3V7.47C125.474 7.47 125.429 7.47 125.338 7.47C125.259 7.47 125.219 7.47 125.219 7.47C125.004 7.47 124.817 7.54367 124.658 7.691C124.499 7.827 124.414 7.997 124.403 8.201H124.369V7.3H125.474ZM130.849 11.805L135.286 16.633C135.479 16.8597 135.683 17.0297 135.898 17.143C136.114 17.2563 136.403 17.3187 136.765 17.33V17.5H136.136C136 17.5 135.83 17.4943 135.626 17.483C135.434 17.4603 135.218 17.4207 134.98 17.364C134.754 17.296 134.521 17.1997 134.283 17.075C134.057 16.939 133.841 16.7577 133.637 16.531C133.637 16.531 133.547 16.4347 133.365 16.242C133.195 16.038 132.969 15.783 132.685 15.477C132.402 15.1597 132.096 14.831 131.767 14.491C131.45 14.1397 131.15 13.811 130.866 13.505C130.583 13.1877 130.351 12.9327 130.169 12.74C129.988 12.536 129.897 12.434 129.897 12.434L130.849 11.805ZM135.388 7.419L130.696 12.434H129.897L134.164 7.419H135.388ZM136.493 7.3V7.47H136.425C136.074 7.47 135.745 7.52667 135.439 7.64C135.145 7.75333 134.901 7.92333 134.708 8.15L133.552 8.133C133.677 7.97433 133.694 7.827 133.603 7.691C133.524 7.54367 133.382 7.47 133.178 7.47H133.025V7.3H136.425H136.493ZM129.302 7.3V17.5H128.214V7.3H129.302ZM128.248 16.412V17.5H127.007V17.33C127.007 17.33 127.041 17.33 127.109 17.33C127.177 17.33 127.211 17.33 127.211 17.33C127.483 17.33 127.716 17.2393 127.908 17.058C128.101 16.8767 128.203 16.6613 128.214 16.412H128.248ZM129.251 16.412H129.302C129.302 16.6613 129.399 16.8767 129.591 17.058C129.784 17.2393 130.022 17.33 130.305 17.33C130.305 17.33 130.334 17.33 130.39 17.33C130.458 17.33 130.492 17.33 130.492 17.33V17.5H129.251V16.412ZM129.251 8.388V7.3H130.492V7.47C130.492 7.47 130.458 7.47 130.39 7.47C130.334 7.47 130.3 7.47 130.288 7.47C130.016 7.47 129.784 7.56067 129.591 7.742C129.399 7.912 129.302 8.12733 129.302 8.388H129.251ZM128.248 8.388H128.214C128.203 8.12733 128.101 7.912 127.908 7.742C127.716 7.56067 127.483 7.47 127.211 7.47C127.211 7.47 127.177 7.47 127.109 7.47C127.041 7.47 127.007 7.47 127.007 7.47V7.3H128.248V8.388Z" fill="#C1C1C1"/>
<path d="M25.812 34.5H25.032V28.296H25.812V34.5ZM25.992 26.424C25.992 26.608 25.936 26.756 25.824 26.868C25.712 26.972 25.576 27.024 25.416 27.024C25.256 27.024 25.12 26.972 25.008 26.868C24.896 26.756 24.84 26.608 24.84 26.424C24.84 26.24 24.896 26.096 25.008 25.992C25.12 25.88 25.256 25.824 25.416 25.824C25.576 25.824 25.712 25.88 25.824 25.992C25.936 26.096 25.992 26.24 25.992 26.424ZM27.8797 28.512C28.1117 28.448 28.4237 28.376 28.8157 28.296C29.2077 28.216 29.6877 28.176 30.2557 28.176C30.7277 28.176 31.1197 28.244 31.4317 28.38C31.7517 28.516 32.0037 28.712 32.1877 28.968C32.3797 29.216 32.5157 29.516 32.5957 29.868C32.6757 30.22 32.7157 30.608 32.7157 31.032V34.5H31.9357V31.284C31.9357 30.844 31.9037 30.472 31.8397 30.168C31.7837 29.864 31.6837 29.616 31.5397 29.424C31.4037 29.232 31.2197 29.096 30.9877 29.016C30.7637 28.928 30.4797 28.884 30.1357 28.884C29.7677 28.884 29.4477 28.904 29.1757 28.944C28.9117 28.984 28.7397 29.02 28.6597 29.052V34.5H27.8797V28.512ZM35.4437 28.296H37.9157V28.956H35.4437V32.256C35.4437 32.608 35.4717 32.896 35.5277 33.12C35.5917 33.336 35.6797 33.504 35.7917 33.624C35.9037 33.744 36.0397 33.824 36.1997 33.864C36.3597 33.904 36.5357 33.924 36.7277 33.924C37.0557 33.924 37.3197 33.888 37.5197 33.816C37.7197 33.736 37.8757 33.664 37.9877 33.6L38.1797 34.248C38.0677 34.32 37.8717 34.404 37.5917 34.5C37.3117 34.588 37.0077 34.632 36.6797 34.632C36.2957 34.632 35.9717 34.584 35.7077 34.488C35.4517 34.384 35.2437 34.232 35.0837 34.032C34.9317 33.824 34.8237 33.568 34.7597 33.264C34.6957 32.96 34.6637 32.6 34.6637 32.184V26.472L35.4437 26.328V28.296ZM38.9803 31.392C38.9803 30.848 39.0563 30.376 39.2083 29.976C39.3683 29.568 39.5723 29.228 39.8203 28.956C40.0763 28.684 40.3643 28.484 40.6843 28.356C41.0123 28.22 41.3483 28.152 41.6923 28.152C42.4523 28.152 43.0563 28.4 43.5043 28.896C43.9603 29.392 44.1883 30.156 44.1883 31.188C44.1883 31.252 44.1843 31.316 44.1763 31.38C44.1763 31.444 44.1723 31.504 44.1643 31.56H39.8083C39.8323 32.32 40.0203 32.904 40.3723 33.312C40.7243 33.72 41.2843 33.924 42.0523 33.924C42.4763 33.924 42.8123 33.884 43.0603 33.804C43.3083 33.724 43.4883 33.656 43.6003 33.6L43.7443 34.272C43.6323 34.336 43.4203 34.412 43.1083 34.5C42.8043 34.588 42.4443 34.632 42.0283 34.632C41.4843 34.632 41.0203 34.552 40.6363 34.392C40.2523 34.232 39.9363 34.008 39.6883 33.72C39.4403 33.432 39.2603 33.092 39.1483 32.7C39.0363 32.3 38.9803 31.864 38.9803 31.392ZM43.3843 30.9C43.3683 30.252 43.2163 29.748 42.9283 29.388C42.6403 29.028 42.2323 28.848 41.7043 28.848C41.4243 28.848 41.1723 28.904 40.9483 29.016C40.7323 29.128 40.5403 29.28 40.3723 29.472C40.2123 29.656 40.0843 29.872 39.9883 30.12C39.9003 30.368 39.8483 30.628 39.8323 30.9H43.3843ZM48.0385 28.176C48.2945 28.176 48.5345 28.196 48.7585 28.236C48.9905 28.276 49.1505 28.316 49.2385 28.356L49.0825 29.028C49.0185 28.996 48.8865 28.964 48.6865 28.932C48.4945 28.892 48.2385 28.872 47.9185 28.872C47.5825 28.872 47.3105 28.896 47.1025 28.944C46.9025 28.992 46.7705 29.032 46.7065 29.064V34.5H45.9265V28.584C46.1265 28.496 46.4025 28.408 46.7545 28.32C47.1065 28.224 47.5345 28.176 48.0385 28.176ZM51.1948 34.5H50.4148V28.296H51.1948V34.5ZM51.3748 26.424C51.3748 26.608 51.3188 26.756 51.2068 26.868C51.0948 26.972 50.9588 27.024 50.7988 27.024C50.6388 27.024 50.5028 26.972 50.3908 26.868C50.2788 26.756 50.2228 26.608 50.2228 26.424C50.2228 26.24 50.2788 26.096 50.3908 25.992C50.5028 25.88 50.6388 25.824 50.7988 25.824C50.9588 25.824 51.0948 25.88 51.2068 25.992C51.3188 26.096 51.3748 26.24 51.3748 26.424ZM58.5545 31.404C58.5545 31.892 58.4825 32.336 58.3385 32.736C58.2025 33.136 58.0065 33.476 57.7505 33.756C57.5025 34.036 57.2065 34.256 56.8625 34.416C56.5185 34.568 56.1385 34.644 55.7225 34.644C55.3065 34.644 54.9265 34.568 54.5825 34.416C54.2385 34.256 53.9385 34.036 53.6825 33.756C53.4345 33.476 53.2385 33.136 53.0945 32.736C52.9585 32.336 52.8905 31.892 52.8905 31.404C52.8905 30.916 52.9585 30.472 53.0945 30.072C53.2385 29.672 53.4345 29.332 53.6825 29.052C53.9385 28.764 54.2385 28.544 54.5825 28.392C54.9265 28.232 55.3065 28.152 55.7225 28.152C56.1385 28.152 56.5185 28.232 56.8625 28.392C57.2065 28.544 57.5025 28.764 57.7505 29.052C58.0065 29.332 58.2025 29.672 58.3385 30.072C58.4825 30.472 58.5545 30.916 58.5545 31.404ZM57.7265 31.404C57.7265 30.628 57.5465 30.012 57.1865 29.556C56.8265 29.092 56.3385 28.86 55.7225 28.86C55.1065 28.86 54.6185 29.092 54.2585 29.556C53.8985 30.012 53.7185 30.628 53.7185 31.404C53.7185 32.18 53.8985 32.796 54.2585 33.252C54.6185 33.708 55.1065 33.936 55.7225 33.936C56.3385 33.936 56.8265 33.708 57.1865 33.252C57.5465 32.796 57.7265 32.18 57.7265 31.404ZM62.3588 28.176C62.6148 28.176 62.8548 28.196 63.0788 28.236C63.3108 28.276 63.4708 28.316 63.5588 28.356L63.4028 29.028C63.3388 28.996 63.2068 28.964 63.0068 28.932C62.8148 28.892 62.5588 28.872 62.2388 28.872C61.9028 28.872 61.6308 28.896 61.4228 28.944C61.2228 28.992 61.0908 29.032 61.0268 29.064V34.5H60.2468V28.584C60.4468 28.496 60.7228 28.408 61.0748 28.32C61.4268 28.224 61.8548 28.176 62.3588 28.176ZM72.3976 34.308C72.1656 34.388 71.8696 34.464 71.5096 34.536C71.1496 34.608 70.6936 34.644 70.1416 34.644C69.6856 34.644 69.2696 34.572 68.8936 34.428C68.5256 34.276 68.2056 34.06 67.9336 33.78C67.6696 33.5 67.4616 33.16 67.3096 32.76C67.1656 32.36 67.0936 31.908 67.0936 31.404C67.0936 30.932 67.1536 30.5 67.2736 30.108C67.4016 29.708 67.5856 29.364 67.8256 29.076C68.0656 28.788 68.3576 28.564 68.7016 28.404C69.0536 28.244 69.4536 28.164 69.9016 28.164C70.3096 28.164 70.6616 28.224 70.9576 28.344C71.2616 28.456 71.4816 28.564 71.6176 28.668V25.332L72.3976 25.188V34.308ZM71.6176 29.424C71.5456 29.368 71.4536 29.308 71.3416 29.244C71.2376 29.18 71.1136 29.12 70.9696 29.064C70.8256 29.008 70.6696 28.964 70.5016 28.932C70.3336 28.892 70.1576 28.872 69.9736 28.872C69.5896 28.872 69.2656 28.94 69.0016 29.076C68.7456 29.212 68.5376 29.396 68.3776 29.628C68.2176 29.852 68.1016 30.12 68.0296 30.432C67.9576 30.736 67.9216 31.06 67.9216 31.404C67.9216 32.22 68.1256 32.848 68.5336 33.288C68.9416 33.72 69.4816 33.936 70.1536 33.936C70.5376 33.936 70.8456 33.92 71.0776 33.888C71.3176 33.848 71.4976 33.808 71.6176 33.768V29.424ZM74.0897 31.392C74.0897 30.848 74.1657 30.376 74.3177 29.976C74.4777 29.568 74.6817 29.228 74.9297 28.956C75.1857 28.684 75.4737 28.484 75.7937 28.356C76.1217 28.22 76.4577 28.152 76.8017 28.152C77.5617 28.152 78.1657 28.4 78.6137 28.896C79.0697 29.392 79.2977 30.156 79.2977 31.188C79.2977 31.252 79.2937 31.316 79.2857 31.38C79.2857 31.444 79.2817 31.504 79.2737 31.56H74.9177C74.9417 32.32 75.1297 32.904 75.4817 33.312C75.8337 33.72 76.3937 33.924 77.1617 33.924C77.5857 33.924 77.9217 33.884 78.1697 33.804C78.4177 33.724 78.5977 33.656 78.7097 33.6L78.8537 34.272C78.7417 34.336 78.5297 34.412 78.2177 34.5C77.9137 34.588 77.5537 34.632 77.1377 34.632C76.5937 34.632 76.1297 34.552 75.7457 34.392C75.3617 34.232 75.0457 34.008 74.7977 33.72C74.5497 33.432 74.3697 33.092 74.2577 32.7C74.1457 32.3 74.0897 31.864 74.0897 31.392ZM78.4937 30.9C78.4777 30.252 78.3257 29.748 78.0377 29.388C77.7497 29.028 77.3417 28.848 76.8137 28.848C76.5337 28.848 76.2817 28.904 76.0577 29.016C75.8417 29.128 75.6497 29.28 75.4817 29.472C75.3217 29.656 75.1937 29.872 75.0977 30.12C75.0097 30.368 74.9577 30.628 74.9417 30.9H78.4937ZM82.3079 33.948C82.7559 33.948 83.1239 33.876 83.4119 33.732C83.7079 33.58 83.8559 33.328 83.8559 32.976C83.8559 32.808 83.8279 32.664 83.7719 32.544C83.7239 32.424 83.6399 32.316 83.5199 32.22C83.3999 32.124 83.2399 32.032 83.0399 31.944C82.8479 31.856 82.6079 31.752 82.3199 31.632C82.0879 31.536 81.8679 31.44 81.6599 31.344C81.4519 31.24 81.2679 31.124 81.1079 30.996C80.9479 30.86 80.8199 30.7 80.7239 30.516C80.6279 30.332 80.5799 30.108 80.5799 29.844C80.5799 29.34 80.7679 28.932 81.1439 28.62C81.5279 28.308 82.0519 28.152 82.7159 28.152C83.1399 28.152 83.4879 28.188 83.7599 28.26C84.0399 28.332 84.2359 28.396 84.3479 28.452L84.1679 29.148C84.0719 29.1 83.9079 29.036 83.6759 28.956C83.4519 28.876 83.1199 28.836 82.6799 28.836C82.5039 28.836 82.3359 28.856 82.1759 28.896C82.0239 28.928 81.8879 28.984 81.7679 29.064C81.6479 29.136 81.5519 29.232 81.4799 29.352C81.4079 29.464 81.3719 29.604 81.3719 29.772C81.3719 29.94 81.4039 30.084 81.4679 30.204C81.5319 30.324 81.6239 30.432 81.7439 30.528C81.8719 30.616 82.0239 30.7 82.1999 30.78C82.3839 30.86 82.5919 30.948 82.8239 31.044C83.0639 31.14 83.2919 31.24 83.5079 31.344C83.7319 31.44 83.9279 31.56 84.0959 31.704C84.2639 31.84 84.3999 32.008 84.5039 32.208C84.6079 32.4 84.6599 32.644 84.6599 32.94C84.6599 33.5 84.4479 33.924 84.0239 34.212C83.6079 34.5 83.0359 34.644 82.3079 34.644C81.7639 34.644 81.3479 34.596 81.0599 34.5C80.7719 34.412 80.5799 34.344 80.4839 34.296L80.6879 33.588C80.7119 33.604 80.7639 33.632 80.8439 33.672C80.9239 33.704 81.0319 33.744 81.1679 33.792C81.3039 33.832 81.4639 33.868 81.6479 33.9C81.8399 33.932 82.0599 33.948 82.3079 33.948ZM86.9487 34.5H86.1687V28.296H86.9487V34.5ZM87.1287 26.424C87.1287 26.608 87.0727 26.756 86.9607 26.868C86.8487 26.972 86.7127 27.024 86.5527 27.024C86.3927 27.024 86.2567 26.972 86.1447 26.868C86.0327 26.756 85.9767 26.608 85.9767 26.424C85.9767 26.24 86.0327 26.096 86.1447 25.992C86.2567 25.88 86.3927 25.824 86.5527 25.824C86.7127 25.824 86.8487 25.88 86.9607 25.992C87.0727 26.096 87.1287 26.24 87.1287 26.424ZM93.0604 33.78C93.0124 33.82 92.9404 33.868 92.8444 33.924C92.7484 33.972 92.6284 34.024 92.4844 34.08C92.3484 34.136 92.1884 34.184 92.0044 34.224C91.8284 34.256 91.6284 34.272 91.4044 34.272C91.0444 34.272 90.6964 34.216 90.3604 34.104C90.0244 33.992 89.7284 33.816 89.4724 33.576C89.2244 33.336 89.0244 33.028 88.8724 32.652C88.7204 32.268 88.6444 31.804 88.6444 31.26C88.6444 30.82 88.7124 30.412 88.8484 30.036C88.9844 29.66 89.1764 29.336 89.4244 29.064C89.6804 28.784 89.9884 28.568 90.3484 28.416C90.7164 28.256 91.1284 28.176 91.5844 28.176C92.1604 28.176 92.6204 28.216 92.9644 28.296C93.3164 28.368 93.6044 28.44 93.8284 28.512V34.176C93.8284 35.104 93.5884 35.764 93.1084 36.156C92.6284 36.556 91.9044 36.756 90.9364 36.756C90.5364 36.756 90.1724 36.724 89.8444 36.66C89.5244 36.604 89.2484 36.536 89.0164 36.456L89.1724 35.748C89.3644 35.836 89.6244 35.912 89.9524 35.976C90.2884 36.04 90.6244 36.072 90.9604 36.072C91.6964 36.072 92.2284 35.928 92.5564 35.64C92.8924 35.36 93.0604 34.876 93.0604 34.188V33.78ZM93.0484 29.052C92.9124 29.012 92.7364 28.976 92.5204 28.944C92.3044 28.904 91.9964 28.884 91.5964 28.884C91.2604 28.884 90.9604 28.944 90.6964 29.064C90.4404 29.176 90.2204 29.34 90.0364 29.556C89.8524 29.764 89.7124 30.016 89.6164 30.312C89.5204 30.6 89.4724 30.92 89.4724 31.272C89.4724 31.68 89.5284 32.032 89.6404 32.328C89.7524 32.616 89.8964 32.852 90.0724 33.036C90.2564 33.22 90.4644 33.356 90.6964 33.444C90.9284 33.524 91.1644 33.564 91.4044 33.564C91.7564 33.564 92.0764 33.512 92.3644 33.408C92.6604 33.304 92.8884 33.184 93.0484 33.048V29.052ZM95.8953 28.512C96.1273 28.448 96.4393 28.376 96.8313 28.296C97.2233 28.216 97.7033 28.176 98.2713 28.176C98.7433 28.176 99.1353 28.244 99.4473 28.38C99.7673 28.516 100.019 28.712 100.203 28.968C100.395 29.216 100.531 29.516 100.611 29.868C100.691 30.22 100.731 30.608 100.731 31.032V34.5H99.9513V31.284C99.9513 30.844 99.9193 30.472 99.8553 30.168C99.7993 29.864 99.6993 29.616 99.5553 29.424C99.4193 29.232 99.2353 29.096 99.0033 29.016C98.7793 28.928 98.4953 28.884 98.1513 28.884C97.7833 28.884 97.4633 28.904 97.1913 28.944C96.9273 28.984 96.7553 29.02 96.6753 29.052V34.5H95.8953V28.512ZM102.355 31.392C102.355 30.848 102.431 30.376 102.583 29.976C102.743 29.568 102.947 29.228 103.195 28.956C103.451 28.684 103.739 28.484 104.059 28.356C104.387 28.22 104.723 28.152 105.067 28.152C105.827 28.152 106.431 28.4 106.879 28.896C107.335 29.392 107.563 30.156 107.563 31.188C107.563 31.252 107.559 31.316 107.551 31.38C107.551 31.444 107.547 31.504 107.539 31.56H103.183C103.207 32.32 103.395 32.904 103.747 33.312C104.099 33.72 104.659 33.924 105.427 33.924C105.851 33.924 106.187 33.884 106.435 33.804C106.683 33.724 106.863 33.656 106.975 33.6L107.119 34.272C107.007 34.336 106.795 34.412 106.483 34.5C106.179 34.588 105.819 34.632 105.403 34.632C104.859 34.632 104.395 34.552 104.011 34.392C103.627 34.232 103.311 34.008 103.063 33.72C102.815 33.432 102.635 33.092 102.523 32.7C102.411 32.3 102.355 31.864 102.355 31.392ZM106.759 30.9C106.743 30.252 106.591 29.748 106.303 29.388C106.015 29.028 105.607 28.848 105.079 28.848C104.799 28.848 104.547 28.904 104.323 29.016C104.107 29.128 103.915 29.28 103.747 29.472C103.587 29.656 103.459 29.872 103.363 30.12C103.275 30.368 103.223 30.628 103.207 30.9H106.759ZM111.414 28.176C111.67 28.176 111.91 28.196 112.134 28.236C112.366 28.276 112.526 28.316 112.614 28.356L112.458 29.028C112.394 28.996 112.262 28.964 112.062 28.932C111.87 28.892 111.614 28.872 111.294 28.872C110.958 28.872 110.686 28.896 110.478 28.944C110.278 28.992 110.146 29.032 110.082 29.064V34.5H109.302V28.584C109.502 28.496 109.778 28.408 110.13 28.32C110.482 28.224 110.91 28.176 111.414 28.176Z" fill="#C1C1C1"/>
</svg>
