<svg width="137" height="78" viewBox="0 0 137 78" fill="none" xmlns="http://www.w3.org/2000/svg">
<path d="M3.434 28.6796V40.5796H2.329V28.6796H3.434ZM8.024 40.0526V40.5796H3.383V40.0526H8.024ZM7.293 34.4596V34.9696H3.383V34.4596H7.293ZM8.024 28.6796V29.2066H3.383V28.6796H8.024ZM9.061 37.8256L8.075 40.5796H5.253L5.865 40.0526C6.46567 40.0526 6.953 39.9619 7.327 39.7806C7.71233 39.5879 8.024 39.3216 8.262 38.9816C8.5 38.6416 8.70967 38.2563 8.891 37.8256H9.061ZM7.293 34.9356V36.0576H7.123V35.8026C7.123 35.5759 7.04367 35.3833 6.885 35.2246C6.72633 35.0546 6.53367 34.9696 6.307 34.9696V34.9356H7.293ZM7.293 33.3716V34.4936H6.307V34.4596C6.53367 34.4483 6.72633 34.3633 6.885 34.2046C7.04367 34.0346 7.123 33.8363 7.123 33.6096V33.3716H7.293ZM8.024 29.1556V30.5156H7.854V30.2096C7.854 29.9376 7.75767 29.7053 7.565 29.5126C7.37233 29.3086 7.13433 29.2009 6.851 29.1896V29.1556H8.024ZM8.024 28.3736V28.8666L5.95 28.6796C6.19933 28.6796 6.46 28.6626 6.732 28.6286C7.01533 28.5946 7.276 28.5549 7.514 28.5096C7.752 28.4643 7.922 28.4189 8.024 28.3736ZM2.38 39.3386V40.5796H1.02V40.4096C1.02 40.4096 1.054 40.4096 1.122 40.4096C1.20133 40.4096 1.241 40.4096 1.241 40.4096C1.53567 40.4096 1.785 40.3076 1.989 40.1036C2.20433 39.8883 2.31767 39.6333 2.329 39.3386H2.38ZM2.38 29.9206H2.329C2.329 29.6259 2.22133 29.3766 2.006 29.1726C1.79067 28.9573 1.53567 28.8496 1.241 28.8496C1.241 28.8496 1.207 28.8496 1.139 28.8496C1.071 28.8496 1.037 28.8496 1.037 28.8496L1.02 28.6796H2.38V29.9206ZM12.9755 30.3796V40.5796H11.8875V30.3796H12.9755ZM17.5485 40.0526L17.5145 40.5796H12.9415V40.0526H17.5485ZM18.5005 38.1486L17.5655 40.5796H14.9815L15.5595 40.0526C16.1262 40.0526 16.5795 39.9733 16.9195 39.8146C17.2708 39.6446 17.5542 39.4179 17.7695 39.1346C17.9848 38.8399 18.1718 38.5113 18.3305 38.1486H18.5005ZM11.9215 39.4916L12.1425 40.5796H10.6635V40.4096C10.6635 40.4096 10.7032 40.4096 10.7825 40.4096C10.8618 40.4096 10.9015 40.4096 10.9015 40.4096C11.1848 40.4096 11.4172 40.3189 11.5985 40.1376C11.7798 39.9563 11.8762 39.7409 11.8875 39.4916H11.9215ZM12.9245 31.4676V30.3796H14.1825V30.5496C14.1825 30.5496 14.1485 30.5496 14.0805 30.5496C14.0125 30.5496 13.9785 30.5496 13.9785 30.5496C13.7065 30.5496 13.4685 30.6403 13.2645 30.8216C13.0718 30.9916 12.9755 31.2069 12.9755 31.4676H12.9245ZM11.9215 31.4676H11.8875C11.8762 31.2069 11.7742 30.9916 11.5815 30.8216C11.3888 30.6403 11.1508 30.5496 10.8675 30.5496C10.8675 30.5496 10.8335 30.5496 10.7655 30.5496C10.6975 30.5496 10.6635 30.5496 10.6635 30.5496V30.3796H11.9215V31.4676ZM21.6747 30.3796V40.5796H20.5867V30.3796H21.6747ZM26.2477 40.0526L26.2137 40.5796H21.6407V40.0526H26.2477ZM25.4487 35.2246V35.7346H21.6407V35.2246H25.4487ZM26.2307 30.3796V30.9066H21.6407V30.3796H26.2307ZM27.1997 38.1486L26.2647 40.5796H23.6807L24.2587 40.0526C24.8254 40.0526 25.2787 39.9733 25.6187 39.8146C25.9701 39.6446 26.2534 39.4179 26.4687 39.1346C26.6841 38.8399 26.8711 38.5113 27.0297 38.1486H27.1997ZM25.4487 35.7006V36.6696H25.2617V36.4486C25.2617 36.2559 25.2051 36.0916 25.0917 35.9556C24.9784 35.8083 24.8027 35.7346 24.5647 35.7346V35.7006H25.4487ZM25.4487 34.2896V35.2586H24.5647V35.2246C24.8027 35.2246 24.9784 35.1566 25.0917 35.0206C25.2051 34.8733 25.2617 34.7033 25.2617 34.5106V34.2896H25.4487ZM26.2307 30.8556V32.0286H26.0437V31.7736C26.0437 31.5356 25.9644 31.3316 25.8057 31.1616C25.6584 30.9916 25.4544 30.9066 25.1937 30.9066V30.8556H26.2307ZM26.2307 30.1076V30.5496L24.2927 30.3796C24.6441 30.3796 25.0181 30.3513 25.4147 30.2946C25.8114 30.2266 26.0834 30.1643 26.2307 30.1076ZM20.6207 39.4916L20.8417 40.5796H19.3627V40.4096C19.3627 40.4096 19.4024 40.4096 19.4817 40.4096C19.5611 40.4096 19.6007 40.4096 19.6007 40.4096C19.8841 40.4096 20.1164 40.3189 20.2977 40.1376C20.4791 39.9563 20.5754 39.7409 20.5867 39.4916H20.6207ZM20.6207 31.4506H20.5867C20.5754 31.1899 20.4791 30.9746 20.2977 30.8046C20.1164 30.6346 19.8841 30.5496 19.6007 30.5496C19.6007 30.5496 19.5611 30.5496 19.4817 30.5496C19.4024 30.5496 19.3627 30.5496 19.3627 30.5496V30.3796H20.8417L20.6207 31.4506ZM29.544 30.1246L38.962 38.9986L39.132 40.8176L29.714 31.8926L29.544 30.1246ZM29.578 39.5256V40.5796H28.303V40.4096C28.303 40.4096 28.3483 40.4096 28.439 40.4096C28.541 40.4096 28.592 40.4096 28.592 40.4096C28.8527 40.4096 29.0737 40.3246 29.255 40.1546C29.4363 39.9846 29.527 39.7749 29.527 39.5256H29.578ZM30.292 39.5256C30.292 39.7749 30.3827 39.9846 30.564 40.1546C30.7567 40.3246 30.9777 40.4096 31.227 40.4096C31.227 40.4096 31.2723 40.4096 31.363 40.4096C31.465 40.4096 31.516 40.4096 31.516 40.4096V40.5796H30.241V39.5256H30.292ZM29.544 30.1246L30.275 31.0766L30.292 40.5796H29.527V32.2496C29.527 31.6716 29.4987 31.1729 29.442 30.7536C29.3967 30.3343 29.374 30.1246 29.374 30.1246H29.544ZM39.132 30.3796V38.6416C39.132 39.0043 39.1433 39.3556 39.166 39.6956C39.1887 40.0243 39.2113 40.2963 39.234 40.5116C39.268 40.7156 39.285 40.8176 39.285 40.8176H39.132L38.384 39.9166V30.3796H39.132ZM39.081 31.4336V30.3796H40.356V30.5496C40.356 30.5496 40.305 30.5496 40.203 30.5496C40.1123 30.5496 40.067 30.5496 40.067 30.5496C39.8177 30.5496 39.5967 30.6346 39.404 30.8046C39.2227 30.9746 39.132 31.1843 39.132 31.4336H39.081ZM38.384 31.4336C38.3727 31.1843 38.2763 30.9746 38.095 30.8046C37.9137 30.6346 37.6927 30.5496 37.432 30.5496C37.432 30.5496 37.381 30.5496 37.279 30.5496C37.1883 30.5496 37.143 30.5496 37.143 30.5496V30.3796H38.418V31.4336H38.384ZM46.6681 30.1416L51.3431 40.4776H50.0001L46.3791 31.6546L46.6681 30.1416ZM43.3871 39.3386C43.2624 39.6786 43.2794 39.9449 43.4381 40.1376C43.5967 40.3189 43.7781 40.4096 43.9821 40.4096H44.1181V40.5796H40.8711V40.4096C40.8711 40.4096 40.8937 40.4096 40.9391 40.4096C40.9844 40.4096 41.0071 40.4096 41.0071 40.4096C41.2451 40.4096 41.4887 40.3303 41.7381 40.1716C41.9874 40.0016 42.2027 39.7239 42.3841 39.3386H43.3871ZM46.6681 30.1416L46.7871 31.3146L42.8941 40.5286H41.8231L45.8521 31.8926C45.8521 31.8926 45.8804 31.8246 45.9371 31.6886C46.0051 31.5526 46.0787 31.3883 46.1581 31.1956C46.2487 30.9916 46.3281 30.7933 46.3961 30.6006C46.4641 30.4079 46.5037 30.2549 46.5151 30.1416H46.6681ZM48.6741 36.6186V37.1286H44.1691V36.6186H48.6741ZM49.5411 39.3386H50.8331C51.0031 39.7239 51.2127 40.0016 51.4621 40.1716C51.7114 40.3303 51.9494 40.4096 52.1761 40.4096C52.1761 40.4096 52.1987 40.4096 52.2441 40.4096C52.2894 40.4096 52.3121 40.4096 52.3121 40.4096V40.5796H48.8271V40.4096H48.9631C49.1557 40.4096 49.3314 40.3189 49.4901 40.1376C49.6487 39.9449 49.6657 39.6786 49.5411 39.3386ZM59.6915 28.6796H61.9355C62.6608 28.6796 63.2842 28.8099 63.8055 29.0706C64.3268 29.3313 64.7292 29.7109 65.0125 30.2096C65.2958 30.6969 65.4375 31.2806 65.4375 31.9606C65.4375 32.4819 65.3355 32.9523 65.1315 33.3716C64.9275 33.7796 64.6555 34.1253 64.3155 34.4086C63.9755 34.6919 63.5902 34.9073 63.1595 35.0546C62.7288 35.1906 62.2812 35.2416 61.8165 35.2076C61.3632 35.1736 60.9212 35.0433 60.4905 34.8166V34.6466C60.4905 34.6466 60.5868 34.6636 60.7795 34.6976C60.9722 34.7203 61.2158 34.7259 61.5105 34.7146C61.8165 34.6919 62.1338 34.6296 62.4625 34.5276C62.8025 34.4143 63.1142 34.2216 63.3975 33.9496C63.6922 33.6776 63.9132 33.2979 64.0605 32.8106C64.0945 32.6859 64.1228 32.5329 64.1455 32.3516C64.1682 32.1589 64.1738 31.9719 64.1625 31.7906C64.1512 31.0086 63.9472 30.3796 63.5505 29.9036C63.1538 29.4276 62.5928 29.1896 61.8675 29.1896H59.8615C59.8615 29.1896 59.8445 29.1499 59.8105 29.0706C59.7878 28.9799 59.7595 28.8949 59.7255 28.8156C59.7028 28.7249 59.6915 28.6796 59.6915 28.6796ZM59.9125 28.6796V40.5796H58.8075V28.6796H59.9125ZM58.8585 39.3386V40.5796H57.4985V40.4096C57.4985 40.4096 57.5325 40.4096 57.6005 40.4096C57.6798 40.4096 57.7195 40.4096 57.7195 40.4096C58.0142 40.4096 58.2635 40.3076 58.4675 40.1036C58.6828 39.8883 58.7962 39.6333 58.8075 39.3386H58.8585ZM58.8585 29.9206H58.8075C58.8075 29.6259 58.6998 29.3766 58.4845 29.1726C58.2692 28.9573 58.0142 28.8496 57.7195 28.8496C57.7195 28.8496 57.6855 28.8496 57.6175 28.8496C57.5495 28.8496 57.5155 28.8496 57.5155 28.8496L57.4985 28.6796H58.8585V29.9206ZM59.8615 39.3386H59.9125C59.9238 39.6333 60.0315 39.8883 60.2355 40.1036C60.4508 40.3076 60.7058 40.4096 61.0005 40.4096C61.0005 40.4096 61.0345 40.4096 61.1025 40.4096C61.1818 40.4096 61.2215 40.4096 61.2215 40.4096V40.5796H59.8615V39.3386ZM70.4747 30.1416L75.1497 40.4776H73.8067L70.1857 31.6546L70.4747 30.1416ZM67.1937 39.3386C67.069 39.6786 67.086 39.9449 67.2447 40.1376C67.4034 40.3189 67.5847 40.4096 67.7887 40.4096H67.9247V40.5796H64.6777V40.4096C64.6777 40.4096 64.7004 40.4096 64.7457 40.4096C64.791 40.4096 64.8137 40.4096 64.8137 40.4096C65.0517 40.4096 65.2954 40.3303 65.5447 40.1716C65.794 40.0016 66.0094 39.7239 66.1907 39.3386H67.1937ZM70.4747 30.1416L70.5937 31.3146L66.7007 40.5286H65.6297L69.6587 31.8926C69.6587 31.8926 69.687 31.8246 69.7437 31.6886C69.8117 31.5526 69.8854 31.3883 69.9647 31.1956C70.0554 30.9916 70.1347 30.7933 70.2027 30.6006C70.2707 30.4079 70.3104 30.2549 70.3217 30.1416H70.4747ZM72.4807 36.6186V37.1286H67.9757V36.6186H72.4807ZM73.3477 39.3386H74.6397C74.8097 39.7239 75.0194 40.0016 75.2687 40.1716C75.518 40.3303 75.756 40.4096 75.9827 40.4096C75.9827 40.4096 76.0054 40.4096 76.0507 40.4096C76.096 40.4096 76.1187 40.4096 76.1187 40.4096V40.5796H72.6337V40.4096H72.7697C72.9624 40.4096 73.138 40.3189 73.2967 40.1376C73.4554 39.9449 73.4724 39.6786 73.3477 39.3386ZM79.0612 30.3796H80.9482C81.7415 30.3796 82.4272 30.4986 83.0052 30.7366C83.5832 30.9633 84.0308 31.2976 84.3482 31.7396C84.6655 32.1703 84.8242 32.6859 84.8242 33.2866C84.8242 33.9326 84.6768 34.4879 84.3822 34.9526C84.0988 35.4059 83.7192 35.7573 83.2432 36.0066C82.7672 36.2446 82.2402 36.3636 81.6622 36.3636C81.0842 36.3523 80.5062 36.2049 79.9282 35.9216V35.7516C79.9282 35.7516 80.0188 35.7686 80.2002 35.8026C80.3928 35.8366 80.6365 35.8536 80.9312 35.8536C81.2258 35.8423 81.5375 35.7913 81.8662 35.7006C82.1948 35.5986 82.5008 35.4173 82.7842 35.1566C83.0788 34.8959 83.3112 34.5219 83.4812 34.0346C83.5265 33.9099 83.5548 33.7626 83.5662 33.5926C83.5888 33.4226 83.6002 33.2639 83.6002 33.1166C83.6002 32.4253 83.3622 31.8813 82.8862 31.4846C82.4102 31.0879 81.7528 30.8896 80.9142 30.8896H79.2482C79.2482 30.8896 79.2312 30.8499 79.1972 30.7706C79.1745 30.6799 79.1462 30.5949 79.1122 30.5156C79.0782 30.4249 79.0612 30.3796 79.0612 30.3796ZM79.2822 30.3796V40.5796H78.1942V30.3796H79.2822ZM78.2282 39.4916L78.4492 40.5796H76.9702V40.4096C76.9702 40.4096 77.0098 40.4096 77.0892 40.4096C77.1685 40.4096 77.2082 40.4096 77.2082 40.4096C77.4802 40.4096 77.7068 40.3189 77.8882 40.1376C78.0808 39.9563 78.1828 39.7409 78.1942 39.4916H78.2282ZM78.2282 31.4506H78.1942C78.1828 31.1899 78.0808 30.9746 77.8882 30.8046C77.7068 30.6346 77.4802 30.5496 77.2082 30.5496C77.2082 30.5496 77.1685 30.5496 77.0892 30.5496C77.0098 30.5496 76.9702 30.5496 76.9702 30.5496V30.3796H78.4492L78.2282 31.4506ZM79.2312 39.4916H79.2652C79.2765 39.7409 79.3728 39.9563 79.5542 40.1376C79.7468 40.3189 79.9792 40.4096 80.2512 40.4096C80.2625 40.4096 80.3022 40.4096 80.3702 40.4096C80.4495 40.4096 80.4892 40.4096 80.4892 40.4096V40.5796H79.0102L79.2312 39.4916ZM88.8316 30.3796V40.5796H87.7606V30.3796H88.8316ZM87.8116 39.4916V40.5796H86.3666V40.4096C86.3666 40.4096 86.4063 40.4096 86.4856 40.4096C86.565 40.4096 86.6046 40.4096 86.6046 40.4096C86.922 40.4096 87.1883 40.3189 87.4036 40.1376C87.6303 39.9563 87.7493 39.7409 87.7606 39.4916H87.8116ZM88.7806 39.4916H88.8316C88.843 39.7409 88.9563 39.9563 89.1716 40.1376C89.3983 40.3189 89.6703 40.4096 89.9876 40.4096C89.9876 40.4096 90.0216 40.4096 90.0896 40.4096C90.169 40.4096 90.2086 40.4096 90.2086 40.4096L90.2256 40.5796H88.7806V39.4916ZM88.7806 31.4676V30.3796H90.2256L90.2086 30.5496C90.2086 30.5496 90.169 30.5496 90.0896 30.5496C90.0216 30.5496 89.9876 30.5496 89.9876 30.5496C89.6703 30.5496 89.3983 30.6403 89.1716 30.8216C88.9563 30.9916 88.843 31.2069 88.8316 31.4676H88.7806ZM87.8116 31.4676H87.7606C87.7493 31.2069 87.6303 30.9916 87.4036 30.8216C87.1883 30.6403 86.922 30.5496 86.6046 30.5496C86.5933 30.5496 86.548 30.5496 86.4686 30.5496C86.4006 30.5496 86.3666 30.5496 86.3666 30.5496V30.3796H87.8116V31.4676ZM99.9826 30.1416C99.9826 30.1416 99.9826 30.1699 99.9826 30.2266C99.9826 30.2719 99.9826 30.2946 99.9826 30.2946L93.1826 40.5796H91.9926V40.4266L98.3336 30.8726H92.2476V30.3626H98.0616C98.2996 30.3626 98.5546 30.3513 98.8266 30.3286C99.0986 30.3059 99.3422 30.2776 99.5576 30.2436C99.7729 30.2096 99.9146 30.1756 99.9826 30.1416ZM100.136 40.0696L100.017 40.5796H93.0976V40.0696H100.136ZM101.054 38.1486L100.136 40.5796H97.5856L98.1636 40.0696C98.7189 40.0583 99.1609 39.9733 99.4896 39.8146C99.8296 39.6559 100.107 39.4349 100.323 39.1516C100.538 38.8569 100.725 38.5226 100.884 38.1486H101.054ZM92.2476 30.8386H93.2846V30.8726C93.0352 30.8839 92.8312 30.9746 92.6726 31.1446C92.5139 31.3033 92.4346 31.5073 92.4346 31.7566V32.0116H92.2476V30.8386ZM92.2476 30.0906C92.3496 30.1246 92.5082 30.1643 92.7236 30.2096C92.9389 30.2436 93.1712 30.2776 93.4206 30.3116C93.6812 30.3343 93.9249 30.3513 94.1516 30.3626L92.2476 30.5326V30.0906ZM112.059 30.3796V40.5796H110.971V30.3796H112.059ZM104.698 30.3796V40.5796H103.61V30.3796H104.698ZM111.141 35.2926V35.8026H104.511V35.2926H111.141ZM103.661 39.4916V40.5796H102.42V40.4096C102.42 40.4096 102.454 40.4096 102.522 40.4096C102.59 40.4096 102.624 40.4096 102.624 40.4096C102.896 40.4096 103.123 40.3189 103.304 40.1376C103.497 39.9563 103.599 39.7409 103.61 39.4916H103.661ZM104.647 39.4916H104.698C104.698 39.7409 104.795 39.9563 104.987 40.1376C105.18 40.3189 105.412 40.4096 105.684 40.4096C105.684 40.4096 105.718 40.4096 105.786 40.4096C105.854 40.4096 105.888 40.4096 105.888 40.4096V40.5796H104.647V39.4916ZM104.647 31.4676V30.3796H105.888V30.5496C105.888 30.5496 105.854 30.5496 105.786 30.5496C105.718 30.5496 105.684 30.5496 105.684 30.5496C105.412 30.5496 105.18 30.6403 104.987 30.8216C104.795 30.9916 104.698 31.2069 104.698 31.4676H104.647ZM103.661 31.4676H103.61C103.599 31.2069 103.497 30.9916 103.304 30.8216C103.123 30.6403 102.896 30.5496 102.624 30.5496C102.624 30.5496 102.59 30.5496 102.522 30.5496C102.454 30.5496 102.42 30.5496 102.42 30.5496V30.3796H103.661V31.4676ZM111.022 39.4916V40.5796H109.781V40.4096C109.781 40.4096 109.815 40.4096 109.883 40.4096C109.951 40.4096 109.985 40.4096 109.985 40.4096C110.257 40.4096 110.484 40.3189 110.665 40.1376C110.858 39.9563 110.96 39.7409 110.971 39.4916H111.022ZM112.008 39.4916H112.059C112.071 39.7409 112.167 39.9563 112.348 40.1376C112.541 40.3189 112.773 40.4096 113.045 40.4096C113.045 40.4096 113.079 40.4096 113.147 40.4096C113.215 40.4096 113.249 40.4096 113.249 40.4096V40.5796H112.008V39.4916ZM112.008 31.4676V30.3796H113.249V30.5496C113.249 30.5496 113.215 30.5496 113.147 30.5496C113.079 30.5496 113.045 30.5496 113.045 30.5496C112.773 30.5496 112.541 30.6403 112.348 30.8216C112.167 30.9916 112.071 31.2069 112.059 31.4676H112.008ZM111.022 31.4676H110.971C110.96 31.2069 110.858 30.9916 110.665 30.8216C110.484 30.6403 110.257 30.5496 109.985 30.5496C109.985 30.5496 109.951 30.5496 109.883 30.5496C109.815 30.5496 109.781 30.5496 109.781 30.5496V30.3796H111.022V31.4676ZM117.008 30.3796V36.8056C117.008 37.9049 117.286 38.7719 117.841 39.4066C118.408 40.0413 119.178 40.3586 120.153 40.3586C121.23 40.3586 122.074 40.0583 122.686 39.4576C123.309 38.8569 123.621 38.0353 123.621 36.9926V30.3796H124.403V36.9926C124.403 38.1713 124.023 39.1063 123.264 39.7976C122.516 40.4776 121.485 40.8176 120.17 40.8176C118.867 40.8176 117.83 40.4776 117.059 39.7976C116.3 39.1176 115.92 38.1883 115.92 37.0096V30.3796H117.008ZM115.954 30.3796V31.2806H115.92C115.909 31.0766 115.824 30.9066 115.665 30.7706C115.518 30.6233 115.331 30.5496 115.104 30.5496C115.104 30.5496 115.059 30.5496 114.968 30.5496C114.889 30.5496 114.849 30.5496 114.849 30.5496V30.3796H115.954ZM118.079 30.3796V30.5496C118.079 30.5496 118.034 30.5496 117.943 30.5496C117.864 30.5496 117.824 30.5496 117.824 30.5496C117.609 30.5496 117.416 30.6233 117.246 30.7706C117.087 30.9066 117.008 31.0766 117.008 31.2806H116.974V30.3796H118.079ZM123.655 30.3796V31.2806H123.621C123.621 31.0766 123.542 30.9066 123.383 30.7706C123.224 30.6233 123.032 30.5496 122.805 30.5496C122.805 30.5496 122.76 30.5496 122.669 30.5496C122.59 30.5496 122.55 30.5496 122.55 30.5496V30.3796H123.655ZM125.474 30.3796V30.5496C125.474 30.5496 125.429 30.5496 125.338 30.5496C125.259 30.5496 125.219 30.5496 125.219 30.5496C125.004 30.5496 124.817 30.6233 124.658 30.7706C124.499 30.9066 124.414 31.0766 124.403 31.2806H124.369V30.3796H125.474ZM130.849 34.8846L135.286 39.7126C135.479 39.9393 135.683 40.1093 135.898 40.2226C136.114 40.3359 136.403 40.3983 136.765 40.4096V40.5796H136.136C136 40.5796 135.83 40.5739 135.626 40.5626C135.434 40.5399 135.218 40.5003 134.98 40.4436C134.754 40.3756 134.521 40.2793 134.283 40.1546C134.057 40.0186 133.841 39.8373 133.637 39.6106C133.637 39.6106 133.547 39.5143 133.365 39.3216C133.195 39.1176 132.969 38.8626 132.685 38.5566C132.402 38.2393 132.096 37.9106 131.767 37.5706C131.45 37.2193 131.15 36.8906 130.866 36.5846C130.583 36.2673 130.351 36.0123 130.169 35.8196C129.988 35.6156 129.897 35.5136 129.897 35.5136L130.849 34.8846ZM135.388 30.4986L130.696 35.5136H129.897L134.164 30.4986H135.388ZM136.493 30.3796V30.5496H136.425C136.074 30.5496 135.745 30.6063 135.439 30.7196C135.145 30.8329 134.901 31.0029 134.708 31.2296L133.552 31.2126C133.677 31.0539 133.694 30.9066 133.603 30.7706C133.524 30.6233 133.382 30.5496 133.178 30.5496H133.025V30.3796H136.425H136.493ZM129.302 30.3796V40.5796H128.214V30.3796H129.302ZM128.248 39.4916V40.5796H127.007V40.4096C127.007 40.4096 127.041 40.4096 127.109 40.4096C127.177 40.4096 127.211 40.4096 127.211 40.4096C127.483 40.4096 127.716 40.3189 127.908 40.1376C128.101 39.9563 128.203 39.7409 128.214 39.4916H128.248ZM129.251 39.4916H129.302C129.302 39.7409 129.399 39.9563 129.591 40.1376C129.784 40.3189 130.022 40.4096 130.305 40.4096C130.305 40.4096 130.334 40.4096 130.39 40.4096C130.458 40.4096 130.492 40.4096 130.492 40.4096V40.5796H129.251V39.4916ZM129.251 31.4676V30.3796H130.492V30.5496C130.492 30.5496 130.458 30.5496 130.39 30.5496C130.334 30.5496 130.3 30.5496 130.288 30.5496C130.016 30.5496 129.784 30.6403 129.591 30.8216C129.399 30.9916 129.302 31.2069 129.302 31.4676H129.251ZM128.248 31.4676H128.214C128.203 31.2069 128.101 30.9916 127.908 30.8216C127.716 30.6403 127.483 30.5496 127.211 30.5496C127.211 30.5496 127.177 30.5496 127.109 30.5496C127.041 30.5496 127.007 30.5496 127.007 30.5496V30.3796H128.248V31.4676Z" fill="#C1C1C1"/>
<path d="M32.51 57.5796H31.86V52.4096H32.51V57.5796ZM32.66 50.8496C32.66 51.0029 32.6133 51.1263 32.52 51.2196C32.4267 51.3063 32.3133 51.3496 32.18 51.3496C32.0467 51.3496 31.9333 51.3063 31.84 51.2196C31.7467 51.1263 31.7 51.0029 31.7 50.8496C31.7 50.6963 31.7467 50.5763 31.84 50.4896C31.9333 50.3963 32.0467 50.3496 32.18 50.3496C32.3133 50.3496 32.4267 50.3963 32.52 50.4896C32.6133 50.5763 32.66 50.6963 32.66 50.8496ZM34.233 52.5896C34.4264 52.5363 34.6864 52.4763 35.013 52.4096C35.3397 52.3429 35.7397 52.3096 36.213 52.3096C36.6064 52.3096 36.933 52.3663 37.193 52.4796C37.4597 52.5929 37.6697 52.7563 37.823 52.9696C37.983 53.1763 38.0964 53.4263 38.163 53.7196C38.2297 54.0129 38.263 54.3363 38.263 54.6896V57.5796H37.613V54.8996C37.613 54.5329 37.5864 54.2229 37.533 53.9696C37.4864 53.7163 37.403 53.5096 37.283 53.3496C37.1697 53.1896 37.0164 53.0763 36.823 53.0096C36.6364 52.9363 36.3997 52.8996 36.113 52.8996C35.8064 52.8996 35.5397 52.9163 35.313 52.9496C35.093 52.9829 34.9497 53.0129 34.883 53.0396V57.5796H34.233V52.5896ZM40.5364 52.4096H42.5964V52.9596H40.5364V55.7096C40.5364 56.0029 40.5597 56.2429 40.6064 56.4296C40.6597 56.6096 40.7331 56.7496 40.8264 56.8496C40.9197 56.9496 41.0331 57.0163 41.1664 57.0496C41.2997 57.0829 41.4464 57.0996 41.6064 57.0996C41.8797 57.0996 42.0997 57.0696 42.2664 57.0096C42.4331 56.9429 42.5631 56.8829 42.6564 56.8296L42.8164 57.3696C42.7231 57.4296 42.5597 57.4996 42.3264 57.5796C42.0931 57.6529 41.8397 57.6896 41.5664 57.6896C41.2464 57.6896 40.9764 57.6496 40.7564 57.5696C40.5431 57.4829 40.3697 57.3563 40.2364 57.1896C40.1097 57.0163 40.0197 56.8029 39.9664 56.5496C39.9131 56.2963 39.8864 55.9963 39.8864 55.6496V50.8896L40.5364 50.7696V52.4096ZM43.4836 54.9896C43.4836 54.5363 43.5469 54.1429 43.6736 53.8096C43.8069 53.4696 43.9769 53.1863 44.1836 52.9596C44.3969 52.7329 44.6369 52.5663 44.9036 52.4596C45.1769 52.3463 45.4569 52.2896 45.7436 52.2896C46.3769 52.2896 46.8803 52.4963 47.2536 52.9096C47.6336 53.3229 47.8236 53.9596 47.8236 54.8196C47.8236 54.8729 47.8203 54.9263 47.8136 54.9796C47.8136 55.0329 47.8103 55.0829 47.8036 55.1296H44.1736C44.1936 55.7629 44.3503 56.2496 44.6436 56.5896C44.9369 56.9296 45.4036 57.0996 46.0436 57.0996C46.3969 57.0996 46.6769 57.0663 46.8836 56.9996C47.0903 56.9329 47.2403 56.8763 47.3336 56.8296L47.4536 57.3896C47.3603 57.4429 47.1836 57.5063 46.9236 57.5796C46.6703 57.6529 46.3703 57.6896 46.0236 57.6896C45.5703 57.6896 45.1836 57.6229 44.8636 57.4896C44.5436 57.3563 44.2803 57.1696 44.0736 56.9296C43.8669 56.6896 43.7169 56.4063 43.6236 56.0796C43.5303 55.7463 43.4836 55.3829 43.4836 54.9896ZM47.1536 54.5796C47.1403 54.0396 47.0136 53.6196 46.7736 53.3196C46.5336 53.0196 46.1936 52.8696 45.7536 52.8696C45.5203 52.8696 45.3103 52.9163 45.1236 53.0096C44.9436 53.1029 44.7836 53.2296 44.6436 53.3896C44.5103 53.5429 44.4036 53.7229 44.3236 53.9296C44.2503 54.1363 44.2069 54.3529 44.1936 54.5796H47.1536ZM51.0321 52.3096C51.2454 52.3096 51.4454 52.3263 51.6321 52.3596C51.8254 52.3929 51.9588 52.4263 52.0321 52.4596L51.9021 53.0196C51.8488 52.9929 51.7388 52.9663 51.5721 52.9396C51.4121 52.9063 51.1988 52.8896 50.9321 52.8896C50.6521 52.8896 50.4254 52.9096 50.2521 52.9496C50.0854 52.9896 49.9754 53.0229 49.9221 53.0496V57.5796H49.2721V52.6496C49.4388 52.5763 49.6688 52.5029 49.9621 52.4296C50.2554 52.3496 50.6121 52.3096 51.0321 52.3096ZM53.6623 57.5796H53.0123V52.4096H53.6623V57.5796ZM53.8123 50.8496C53.8123 51.0029 53.7657 51.1263 53.6723 51.2196C53.579 51.3063 53.4657 51.3496 53.3323 51.3496C53.199 51.3496 53.0857 51.3063 52.9923 51.2196C52.899 51.1263 52.8523 51.0029 52.8523 50.8496C52.8523 50.6963 52.899 50.5763 52.9923 50.4896C53.0857 50.3963 53.199 50.3496 53.3323 50.3496C53.4657 50.3496 53.579 50.3963 53.6723 50.4896C53.7657 50.5763 53.8123 50.6963 53.8123 50.8496ZM59.7954 54.9996C59.7954 55.4063 59.7354 55.7763 59.6154 56.1096C59.5021 56.4429 59.3387 56.7263 59.1254 56.9596C58.9187 57.1929 58.6721 57.3763 58.3854 57.5096C58.0987 57.6363 57.7821 57.6996 57.4354 57.6996C57.0887 57.6996 56.7721 57.6363 56.4854 57.5096C56.1987 57.3763 55.9487 57.1929 55.7354 56.9596C55.5287 56.7263 55.3654 56.4429 55.2454 56.1096C55.1321 55.7763 55.0754 55.4063 55.0754 54.9996C55.0754 54.5929 55.1321 54.2229 55.2454 53.8896C55.3654 53.5563 55.5287 53.2729 55.7354 53.0396C55.9487 52.7996 56.1987 52.6163 56.4854 52.4896C56.7721 52.3563 57.0887 52.2896 57.4354 52.2896C57.7821 52.2896 58.0987 52.3563 58.3854 52.4896C58.6721 52.6163 58.9187 52.7996 59.1254 53.0396C59.3387 53.2729 59.5021 53.5563 59.6154 53.8896C59.7354 54.2229 59.7954 54.5929 59.7954 54.9996ZM59.1054 54.9996C59.1054 54.3529 58.9554 53.8396 58.6554 53.4596C58.3554 53.0729 57.9487 52.8796 57.4354 52.8796C56.9221 52.8796 56.5154 53.0729 56.2154 53.4596C55.9154 53.8396 55.7654 54.3529 55.7654 54.9996C55.7654 55.6463 55.9154 56.1596 56.2154 56.5396C56.5154 56.9196 56.9221 57.1096 57.4354 57.1096C57.9487 57.1096 58.3554 56.9196 58.6554 56.5396C58.9554 56.1596 59.1054 55.6463 59.1054 54.9996ZM62.9657 52.3096C63.179 52.3096 63.379 52.3263 63.5657 52.3596C63.759 52.3929 63.8924 52.4263 63.9657 52.4596L63.8357 53.0196C63.7824 52.9929 63.6724 52.9663 63.5057 52.9396C63.3457 52.9063 63.1324 52.8896 62.8657 52.8896C62.5857 52.8896 62.359 52.9096 62.1857 52.9496C62.019 52.9896 61.909 53.0229 61.8557 53.0496V57.5796H61.2057V52.6496C61.3724 52.5763 61.6024 52.5029 61.8957 52.4296C62.189 52.3496 62.5457 52.3096 62.9657 52.3096ZM71.3313 57.4196C71.138 57.4863 70.8913 57.5496 70.5913 57.6096C70.2913 57.6696 69.9113 57.6996 69.4513 57.6996C69.0713 57.6996 68.7247 57.6396 68.4113 57.5196C68.1047 57.3929 67.838 57.2129 67.6113 56.9796C67.3913 56.7463 67.218 56.4629 67.0913 56.1296C66.9713 55.7963 66.9113 55.4196 66.9113 54.9996C66.9113 54.6063 66.9613 54.2463 67.0613 53.9196C67.168 53.5863 67.3213 53.2996 67.5213 53.0596C67.7213 52.8196 67.9647 52.6329 68.2513 52.4996C68.5447 52.3663 68.878 52.2996 69.2513 52.2996C69.5913 52.2996 69.8847 52.3496 70.1313 52.4496C70.3847 52.5429 70.568 52.6329 70.6813 52.7196V49.9396L71.3313 49.8196V57.4196ZM70.6813 53.3496C70.6213 53.3029 70.5447 53.2529 70.4513 53.1996C70.3647 53.1463 70.2613 53.0963 70.1413 53.0496C70.0213 53.0029 69.8913 52.9663 69.7513 52.9396C69.6113 52.9063 69.4647 52.8896 69.3113 52.8896C68.9913 52.8896 68.7213 52.9463 68.5013 53.0596C68.288 53.1729 68.1147 53.3263 67.9813 53.5196C67.848 53.7063 67.7513 53.9296 67.6913 54.1896C67.6313 54.4429 67.6013 54.7129 67.6013 54.9996C67.6013 55.6796 67.7713 56.2029 68.1113 56.5696C68.4513 56.9296 68.9013 57.1096 69.4613 57.1096C69.7813 57.1096 70.038 57.0963 70.2313 57.0696C70.4313 57.0363 70.5813 57.0029 70.6813 56.9696V53.3496ZM72.7414 54.9896C72.7414 54.5363 72.8047 54.1429 72.9314 53.8096C73.0647 53.4696 73.2347 53.1863 73.4414 52.9596C73.6547 52.7329 73.8947 52.5663 74.1614 52.4596C74.4347 52.3463 74.7147 52.2896 75.0014 52.2896C75.6347 52.2896 76.1381 52.4963 76.5114 52.9096C76.8914 53.3229 77.0814 53.9596 77.0814 54.8196C77.0814 54.8729 77.0781 54.9263 77.0714 54.9796C77.0714 55.0329 77.0681 55.0829 77.0614 55.1296H73.4314C73.4514 55.7629 73.6081 56.2496 73.9014 56.5896C74.1947 56.9296 74.6614 57.0996 75.3014 57.0996C75.6547 57.0996 75.9347 57.0663 76.1414 56.9996C76.3481 56.9329 76.4981 56.8763 76.5914 56.8296L76.7114 57.3896C76.6181 57.4429 76.4414 57.5063 76.1814 57.5796C75.9281 57.6529 75.6281 57.6896 75.2814 57.6896C74.8281 57.6896 74.4414 57.6229 74.1214 57.4896C73.8014 57.3563 73.5381 57.1696 73.3314 56.9296C73.1247 56.6896 72.9747 56.4063 72.8814 56.0796C72.7881 55.7463 72.7414 55.3829 72.7414 54.9896ZM76.4114 54.5796C76.3981 54.0396 76.2714 53.6196 76.0314 53.3196C75.7914 53.0196 75.4514 52.8696 75.0114 52.8696C74.7781 52.8696 74.5681 52.9163 74.3814 53.0096C74.2014 53.1029 74.0414 53.2296 73.9014 53.3896C73.7681 53.5429 73.6614 53.7229 73.5814 53.9296C73.5081 54.1363 73.4647 54.3529 73.4514 54.5796H76.4114ZM79.5899 57.1196C79.9633 57.1196 80.2699 57.0596 80.5099 56.9396C80.7566 56.8129 80.8799 56.6029 80.8799 56.3096C80.8799 56.1696 80.8566 56.0496 80.8099 55.9496C80.7699 55.8496 80.6999 55.7596 80.5999 55.6796C80.4999 55.5996 80.3666 55.5229 80.1999 55.4496C80.0399 55.3763 79.8399 55.2896 79.5999 55.1896C79.4066 55.1096 79.2233 55.0296 79.0499 54.9496C78.8766 54.8629 78.7233 54.7663 78.5899 54.6596C78.4566 54.5463 78.3499 54.4129 78.2699 54.2596C78.1899 54.1063 78.1499 53.9196 78.1499 53.6996C78.1499 53.2796 78.3066 52.9396 78.6199 52.6796C78.9399 52.4196 79.3766 52.2896 79.9299 52.2896C80.2833 52.2896 80.5733 52.3196 80.7999 52.3796C81.0333 52.4396 81.1966 52.4929 81.2899 52.5396L81.1399 53.1196C81.0599 53.0796 80.9233 53.0263 80.7299 52.9596C80.5433 52.8929 80.2666 52.8596 79.8999 52.8596C79.7533 52.8596 79.6133 52.8763 79.4799 52.9096C79.3533 52.9363 79.2399 52.9829 79.1399 53.0496C79.0399 53.1096 78.9599 53.1896 78.8999 53.2896C78.8399 53.3829 78.8099 53.4996 78.8099 53.6396C78.8099 53.7796 78.8366 53.8996 78.8899 53.9996C78.9433 54.0996 79.0199 54.1896 79.1199 54.2696C79.2266 54.3429 79.3533 54.4129 79.4999 54.4796C79.6533 54.5463 79.8266 54.6196 80.0199 54.6996C80.2199 54.7796 80.4099 54.8629 80.5899 54.9496C80.7766 55.0296 80.9399 55.1296 81.0799 55.2496C81.2199 55.3629 81.3333 55.5029 81.4199 55.6696C81.5066 55.8296 81.5499 56.0329 81.5499 56.2796C81.5499 56.7463 81.3733 57.0996 81.0199 57.3396C80.6733 57.5796 80.1966 57.6996 79.5899 57.6996C79.1366 57.6996 78.7899 57.6596 78.5499 57.5796C78.3099 57.5063 78.1499 57.4496 78.0699 57.4096L78.2399 56.8196C78.2599 56.8329 78.3033 56.8563 78.3699 56.8896C78.4366 56.9163 78.5266 56.9496 78.6399 56.9896C78.7533 57.0229 78.8866 57.0529 79.0399 57.0796C79.1999 57.1063 79.3833 57.1196 79.5899 57.1196ZM83.4573 57.5796H82.8073V52.4096H83.4573V57.5796ZM83.6073 50.8496C83.6073 51.0029 83.5606 51.1263 83.4673 51.2196C83.3739 51.3063 83.2606 51.3496 83.1273 51.3496C82.9939 51.3496 82.8806 51.3063 82.7873 51.2196C82.6939 51.1263 82.6473 51.0029 82.6473 50.8496C82.6473 50.6963 82.6939 50.5763 82.7873 50.4896C82.8806 50.3963 82.9939 50.3496 83.1273 50.3496C83.2606 50.3496 83.3739 50.3963 83.4673 50.4896C83.5606 50.5763 83.6073 50.6963 83.6073 50.8496ZM88.5503 56.9796C88.5103 57.0129 88.4503 57.0529 88.3703 57.0996C88.2903 57.1396 88.1903 57.1829 88.0703 57.2296C87.957 57.2763 87.8236 57.3163 87.6703 57.3496C87.5236 57.3763 87.357 57.3896 87.1703 57.3896C86.8703 57.3896 86.5803 57.3429 86.3003 57.2496C86.0203 57.1563 85.7736 57.0096 85.5603 56.8096C85.3536 56.6096 85.187 56.3529 85.0603 56.0396C84.9336 55.7196 84.8703 55.3329 84.8703 54.8796C84.8703 54.5129 84.927 54.1729 85.0403 53.8596C85.1536 53.5463 85.3136 53.2763 85.5203 53.0496C85.7336 52.8163 85.9903 52.6363 86.2903 52.5096C86.597 52.3763 86.9403 52.3096 87.3203 52.3096C87.8003 52.3096 88.1836 52.3429 88.4703 52.4096C88.7636 52.4696 89.0036 52.5296 89.1903 52.5896V57.3096C89.1903 58.0829 88.9903 58.6329 88.5903 58.9596C88.1903 59.2929 87.587 59.4596 86.7803 59.4596C86.447 59.4596 86.1436 59.4329 85.8703 59.3796C85.6036 59.3329 85.3736 59.2763 85.1803 59.2096L85.3103 58.6196C85.4703 58.6929 85.687 58.7563 85.9603 58.8096C86.2403 58.8629 86.5203 58.8896 86.8003 58.8896C87.4136 58.8896 87.857 58.7696 88.1303 58.5296C88.4103 58.2963 88.5503 57.8929 88.5503 57.3196V56.9796ZM88.5403 53.0396C88.427 53.0063 88.2803 52.9763 88.1003 52.9496C87.9203 52.9163 87.6636 52.8996 87.3303 52.8996C87.0503 52.8996 86.8003 52.9496 86.5803 53.0496C86.367 53.1429 86.1836 53.2796 86.0303 53.4596C85.877 53.6329 85.7603 53.8429 85.6803 54.0896C85.6003 54.3296 85.5603 54.5963 85.5603 54.8896C85.5603 55.2296 85.607 55.5229 85.7003 55.7696C85.7936 56.0096 85.9136 56.2063 86.0603 56.3596C86.2136 56.5129 86.387 56.6263 86.5803 56.6996C86.7736 56.7663 86.9703 56.7996 87.1703 56.7996C87.4636 56.7996 87.7303 56.7563 87.9703 56.6696C88.217 56.5829 88.407 56.4829 88.5403 56.3696V53.0396ZM90.9127 52.5896C91.1061 52.5363 91.3661 52.4763 91.6927 52.4096C92.0194 52.3429 92.4194 52.3096 92.8927 52.3096C93.2861 52.3096 93.6127 52.3663 93.8727 52.4796C94.1394 52.5929 94.3494 52.7563 94.5027 52.9696C94.6627 53.1763 94.7761 53.4263 94.8427 53.7196C94.9094 54.0129 94.9427 54.3363 94.9427 54.6896V57.5796H94.2927V54.8996C94.2927 54.5329 94.2661 54.2229 94.2127 53.9696C94.1661 53.7163 94.0827 53.5096 93.9627 53.3496C93.8494 53.1896 93.6961 53.0763 93.5027 53.0096C93.3161 52.9363 93.0794 52.8996 92.7927 52.8996C92.4861 52.8996 92.2194 52.9163 91.9927 52.9496C91.7727 52.9829 91.6294 53.0129 91.5627 53.0396V57.5796H90.9127V52.5896ZM96.2961 54.9896C96.2961 54.5363 96.3594 54.1429 96.4861 53.8096C96.6194 53.4696 96.7894 53.1863 96.9961 52.9596C97.2094 52.7329 97.4494 52.5663 97.7161 52.4596C97.9894 52.3463 98.2694 52.2896 98.5561 52.2896C99.1894 52.2896 99.6928 52.4963 100.066 52.9096C100.446 53.3229 100.636 53.9596 100.636 54.8196C100.636 54.8729 100.633 54.9263 100.626 54.9796C100.626 55.0329 100.623 55.0829 100.616 55.1296H96.9861C97.0061 55.7629 97.1628 56.2496 97.4561 56.5896C97.7494 56.9296 98.2161 57.0996 98.8561 57.0996C99.2094 57.0996 99.4894 57.0663 99.6961 56.9996C99.9028 56.9329 100.053 56.8763 100.146 56.8296L100.266 57.3896C100.173 57.4429 99.9961 57.5063 99.7361 57.5796C99.4828 57.6529 99.1828 57.6896 98.8361 57.6896C98.3828 57.6896 97.9961 57.6229 97.6761 57.4896C97.3561 57.3563 97.0928 57.1696 96.8861 56.9296C96.6794 56.6896 96.5294 56.4063 96.4361 56.0796C96.3428 55.7463 96.2961 55.3829 96.2961 54.9896ZM99.9661 54.5796C99.9528 54.0396 99.8261 53.6196 99.5861 53.3196C99.3461 53.0196 99.0061 52.8696 98.5661 52.8696C98.3328 52.8696 98.1228 52.9163 97.9361 53.0096C97.7561 53.1029 97.5961 53.2296 97.4561 53.3896C97.3228 53.5429 97.2161 53.7229 97.1361 53.9296C97.0628 54.1363 97.0194 54.3529 97.0061 54.5796H99.9661ZM103.845 52.3096C104.058 52.3096 104.258 52.3263 104.445 52.3596C104.638 52.3929 104.771 52.4263 104.845 52.4596L104.715 53.0196C104.661 52.9929 104.551 52.9663 104.385 52.9396C104.225 52.9063 104.011 52.8896 103.745 52.8896C103.465 52.8896 103.238 52.9096 103.065 52.9496C102.898 52.9896 102.788 53.0229 102.735 53.0496V57.5796H102.085V52.6496C102.251 52.5763 102.481 52.5029 102.775 52.4296C103.068 52.3496 103.425 52.3096 103.845 52.3096Z" fill="#C1C1C1"/>
<line x1="34.5223" y1="0.775024" x2="98.801" y2="77.3795" stroke="#C1C1C1" stroke-width="0.7"/>
</svg>
